<svg width="64" height="64" viewBox="0 0 64 64" fill="none" xmlns="http://www.w3.org/2000/svg">
<path d="M27.1 32.3117C26.4191 31.8547 25.529 31.8565 24.85 32.3162L14 38.089V35.9375C19.0463 35.3084 23 29.9705 23 23.5C23 16.6074 18.514 11 13 11C7.48601 11 3.00001 16.6074 3.00001 23.5C3.00001 29.9707 6.95376 35.3085 12 35.9375V39.153L7.79889 41.4024C6.91651 42.0669 6.73989 43.3209 7.40439 44.2031C7.78214 44.7048 8.37376 44.9999 9.00176 45H9.00589L10.0059 44.9981L10.022 51H9.00001C6.23989 51.0031 4.00314 53.2399 4.00001 56V59H3.80689C3.25463 59 2.80688 59.4478 2.80688 60C2.80688 60.5522 3.25463 61 3.80689 61H12.6584C12.784 61.0159 60 61 60 61C60.5523 61 61 60.5522 61 60C61 59.4478 60.5523 59 60 59H59V56C58.9969 53.2399 56.7602 51.0031 54 51H49V35.8976C55.7407 34.9826 61 27.9785 61 19.5C61 10.4019 54.944 3 47.5 3C40.056 3 34 10.4019 34 19.5C34 28.3934 39.7869 35.6647 47 35.9875V51H42.022L42.0064 44.9375L43.0064 44.9356C44.111 44.9335 45.0046 44.0364 45.0025 42.9318C45.0013 42.3022 44.7038 41.7101 44.1995 41.3334L27.1 32.3117ZM5.00001 23.5C5.00001 17.7104 8.58876 13 13 13C17.4113 13 21 17.7104 21 23.5C21 28.845 17.9406 33.2668 14 33.915V28.4142L17.7071 24.7071C18.0976 24.3166 18.0976 23.6834 17.7071 23.2929C17.3166 22.9024 16.6834 22.9024 16.2929 23.2929L14 25.5858V22.4142L17.7071 18.7071C18.0976 18.3166 18.0976 17.6834 17.7071 17.2929C17.3166 16.9024 16.6834 16.9024 16.2929 17.2929L13 20.5859L9.70714 17.2929C9.31664 16.9024 8.68339 16.9024 8.29289 17.2929C7.90239 17.6834 7.90239 18.3166 8.29289 18.7071L12 22.4142V25.5858L9.70714 23.2929C9.31664 22.9024 8.68339 22.9024 8.29289 23.2929C7.90239 23.6834 7.90239 24.3166 8.29289 24.7071L12 28.4142V33.915C8.05939 33.2668 5.00001 28.845 5.00001 23.5ZM22.025 50.0076L30.025 49.9925L30.0423 58.9925L26.0101 59H22.042L22.025 50.0076ZM25.8459 34.0516C25.8919 34.0271 25.936 33.999 25.9776 33.9676C26.0196 33.9989 26.0639 34.0269 26.1101 34.0513L42.9758 42.935L9.02814 43L25.8459 34.0516ZM40.0401 57.9734C40.0411 58.5256 39.5944 58.9741 39.0421 58.9753L32.0421 58.9886L32.0249 49.9886C32.023 48.8854 31.1281 47.9921 30.0249 47.9921H30.0213L22.0213 48.0074C20.9166 48.0095 20.0229 48.9065 20.025 50.0111V50.0115L20.042 59H12.8214C12.3651 58.8983 12.0405 58.4935 12.0403 58.026L12.0065 44.9943L40.0064 44.9409L40.0401 57.9734ZM6.00001 56C6.00189 54.3439 7.34389 53.0019 9.00001 53H10.0271L10.0396 58.0304C10.0401 58.3604 10.0951 58.6879 10.2021 59H6.00001V56ZM57 56V59H41.8609C41.9805 58.6694 42.0413 58.3204 42.0401 57.9688L42.0276 53H54C55.6562 53.0019 56.9981 54.3439 57 56ZM36 19.5C36 11.5046 41.1589 5 47.5 5C53.8411 5 59 11.5046 59 19.5C59 26.8544 54.6349 32.947 49 33.8766V28.4806L53.625 24.7806C54.0563 24.4355 54.126 23.806 53.7809 23.3748C53.4358 22.9435 52.8063 22.8738 52.375 23.2189L49 25.9189V19.4806L53.625 15.7806C54.0563 15.4355 54.126 14.806 53.7809 14.3748C53.4358 13.9435 52.8063 13.8737 52.375 14.2189L47.9463 17.7625L42.5546 14.1681C42.0951 13.8618 41.4743 13.986 41.1679 14.4455C40.8615 14.905 40.9858 15.5259 41.4453 15.8322L47 19.5351V26.1315L42.5548 23.168C42.0953 22.8616 41.4744 22.9859 41.168 23.4454C40.8616 23.9049 40.9859 24.5257 41.4454 24.8321L47 28.5351V33.9851C40.89 33.6541 36 27.284 36 19.5Z" fill="#6AAF08"/>
</svg>
