<svg width="57" height="57" viewBox="0 0 57 57" fill="none" xmlns="http://www.w3.org/2000/svg">
<path d="M52.25 0H4.75C2.12776 0.00320625 0.00320625 2.12776 0 4.75V52.25C0.00320625 54.8722 2.12776 56.9968 4.75 57H52.25C54.8722 56.9968 56.9968 54.8722 57 52.25V4.75C56.9968 2.12776 54.8722 0.00320625 52.25 0ZM55.1 52.25C55.1 53.8239 53.8239 55.1 52.25 55.1H4.75C3.17609 55.1 1.9 53.8239 1.9 52.25V4.75C1.9 3.17609 3.17609 1.9 4.75 1.9H52.25C53.8239 1.9 55.1 3.17609 55.1 4.75V52.25Z" fill="#6AAF08"/>
<path d="M28.5 5.7002C15.9078 5.7002 5.69995 15.9081 5.69995 28.5002C5.69995 41.0923 15.9078 51.3002 28.5 51.3002C41.0921 51.3002 51.3 41.0923 51.3 28.5002C51.2851 15.9141 41.086 5.71504 28.5 5.7002ZM28.5 49.4002C16.9571 49.4002 7.59995 40.0431 7.59995 28.5002C7.59995 16.9573 16.9571 7.6002 28.5 7.6002C40.0428 7.6002 49.4 16.9573 49.4 28.5002C49.387 40.0375 40.0372 49.3873 28.5 49.4002Z" fill="#6AAF08"/>
<path d="M50.35 3.80029C48.7761 3.80029 47.5 5.07638 47.5 6.65029C47.5 8.22421 48.7761 9.5003 50.35 9.5003C51.9239 9.5003 53.2 8.22421 53.2 6.65029C53.2 5.07638 51.9239 3.80029 50.35 3.80029ZM50.35 7.6003C49.8254 7.6003 49.4 7.17493 49.4 6.65029C49.4 6.12566 49.8254 5.70029 50.35 5.70029C50.8746 5.70029 51.3 6.12566 51.3 6.65029C51.3 7.17493 50.8746 7.6003 50.35 7.6003Z" fill="#6AAF08"/>
<path d="M6.65005 9.5003C8.22396 9.5003 9.50005 8.22421 9.50005 6.65029C9.50005 5.07638 8.22396 3.80029 6.65005 3.80029C5.07614 3.80029 3.80005 5.07638 3.80005 6.65029C3.80005 8.22421 5.07614 9.5003 6.65005 9.5003ZM6.65005 5.70029C7.17469 5.70029 7.60005 6.12566 7.60005 6.65029C7.60005 7.17493 7.17469 7.6003 6.65005 7.6003C6.12541 7.6003 5.70005 7.17493 5.70005 6.65029C5.70005 6.12566 6.12541 5.70029 6.65005 5.70029Z" fill="#6AAF08"/>
<path d="M50.35 47.5C48.7761 47.5 47.5 48.7761 47.5 50.35C47.5 51.9239 48.7761 53.2 50.35 53.2C51.9239 53.2 53.2 51.9239 53.2 50.35C53.2 48.7761 51.9239 47.5 50.35 47.5ZM50.35 51.3C49.8254 51.3 49.4 50.8746 49.4 50.35C49.4 49.8254 49.8254 49.4 50.35 49.4C50.8746 49.4 51.3 49.8254 51.3 50.35C51.3 50.8746 50.8746 51.3 50.35 51.3Z" fill="#6AAF08"/>
<path d="M6.65005 47.5C5.07614 47.5 3.80005 48.7761 3.80005 50.35C3.80005 51.9239 5.07614 53.2 6.65005 53.2C8.22396 53.2 9.50005 51.9239 9.50005 50.35C9.50005 48.7761 8.22396 47.5 6.65005 47.5ZM6.65005 51.3C6.12541 51.3 5.70005 50.8746 5.70005 50.35C5.70005 49.8254 6.12541 49.4 6.65005 49.4C7.17469 49.4 7.60005 49.8254 7.60005 50.35C7.60005 50.8746 7.17469 51.3 6.65005 51.3Z" fill="#6AAF08"/>
<path d="M14.25 27.5501H42.75C44.3239 27.5501 45.6 26.274 45.6 24.7001C45.6 23.1262 44.3239 21.8501 42.75 21.8501H14.25C12.6761 21.8501 11.4 23.1262 11.4 24.7001C11.4 26.274 12.6761 27.5501 14.25 27.5501ZM14.25 23.7501H42.75C43.2747 23.7501 43.7 24.1755 43.7 24.7001C43.7 25.2247 43.2747 25.6501 42.75 25.6501H14.25C13.7254 25.6501 13.3 25.2247 13.3 24.7001C13.3 24.1755 13.7254 23.7501 14.25 23.7501Z" fill="#6AAF08"/>
<path d="M17.1 19.95H39.9C41.4739 19.95 42.75 18.6739 42.75 17.1C42.75 15.5261 41.4739 14.25 39.9 14.25H17.1C15.5261 14.25 14.25 15.5261 14.25 17.1C14.25 18.6739 15.5261 19.95 17.1 19.95ZM17.1 16.15H39.9C40.4246 16.15 40.85 16.5754 40.85 17.1C40.85 17.6246 40.4246 18.05 39.9 18.05H17.1C16.5754 18.05 16.15 17.6246 16.15 17.1C16.15 16.5754 16.5754 16.15 17.1 16.15Z" fill="#6AAF08"/>
<path d="M42.75 29.4497H14.25C12.6761 29.4497 11.4 30.7258 11.4 32.2997C11.4 33.8736 12.6761 35.1497 14.25 35.1497H42.75C44.3239 35.1497 45.6 33.8736 45.6 32.2997C45.6 30.7258 44.3239 29.4497 42.75 29.4497ZM42.75 33.2497H14.25C13.7254 33.2497 13.3 32.8243 13.3 32.2997C13.3 31.7751 13.7254 31.3497 14.25 31.3497H42.75C43.2747 31.3497 43.7 31.7751 43.7 32.2997C43.7 32.8243 43.2747 33.2497 42.75 33.2497Z" fill="#6AAF08"/>
<path d="M39.9 37.0498H17.1C15.5261 37.0498 14.25 38.3259 14.25 39.8998C14.25 41.4737 15.5261 42.7498 17.1 42.7498H39.9C41.4739 42.7498 42.75 41.4737 42.75 39.8998C42.75 38.3259 41.4739 37.0498 39.9 37.0498ZM39.9 40.8498H17.1C16.5754 40.8498 16.15 40.4244 16.15 39.8998C16.15 39.3752 16.5754 38.9498 17.1 38.9498H39.9C40.4246 38.9498 40.85 39.3752 40.85 39.8998C40.85 40.4244 40.4246 40.8498 39.9 40.8498Z" fill="#6AAF08"/>
</svg>
