<svg width="54" height="54" viewBox="0 0 54 54" fill="none" xmlns="http://www.w3.org/2000/svg">
<g clip-path="url(#clip0)">
<path d="M4.5001 45.8996H5.4001C5.63879 45.8996 5.86771 45.8048 6.03649 45.636C6.20528 45.4672 6.3001 45.2383 6.3001 44.9996C6.3001 44.7609 6.20528 44.532 6.03649 44.3632C5.86771 44.1944 5.63879 44.0996 5.4001 44.0996H4.5001C4.2614 44.0996 4.03248 44.1944 3.8637 44.3632C3.69492 44.532 3.6001 44.7609 3.6001 44.9996C3.6001 45.2383 3.69492 45.4672 3.8637 45.636C4.03248 45.8048 4.2614 45.8996 4.5001 45.8996Z" fill="#6AAF08"/>
<path d="M10.7999 47.6999H11.6999C11.9386 47.6999 12.1675 47.6051 12.3363 47.4363C12.5051 47.2675 12.5999 47.0386 12.5999 46.7999C12.5999 46.5612 12.5051 46.3323 12.3363 46.1635C12.1675 45.9947 11.9386 45.8999 11.6999 45.8999H10.7999C10.5612 45.8999 10.3323 45.9947 10.1635 46.1635C9.99472 46.3323 9.8999 46.5612 9.8999 46.7999C9.8999 47.0386 9.99472 47.2675 10.1635 47.4363C10.3323 47.6051 10.5612 47.6999 10.7999 47.6999Z" fill="#6AAF08"/>
<path d="M4.5001 50.4001H5.4001C5.63879 50.4001 5.86771 50.3053 6.03649 50.1365C6.20528 49.9677 6.3001 49.7388 6.3001 49.5001C6.3001 49.2614 6.20528 49.0325 6.03649 48.8637C5.86771 48.6949 5.63879 48.6001 5.4001 48.6001H4.5001C4.2614 48.6001 4.03248 48.6949 3.8637 48.8637C3.69492 49.0325 3.6001 49.2614 3.6001 49.5001C3.6001 49.7388 3.69492 49.9677 3.8637 50.1365C4.03248 50.3053 4.2614 50.4001 4.5001 50.4001Z" fill="#6AAF08"/>
<path d="M17.1 45.8996H18C18.2386 45.8996 18.4676 45.8048 18.6363 45.636C18.8051 45.4672 18.9 45.2383 18.9 44.9996C18.9 44.7609 18.8051 44.532 18.6363 44.3632C18.4676 44.1944 18.2386 44.0996 18 44.0996H17.1C16.8613 44.0996 16.6323 44.1944 16.4636 44.3632C16.2948 44.532 16.2 44.7609 16.2 44.9996C16.2 45.2383 16.2948 45.4672 16.4636 45.636C16.6323 45.8048 16.8613 45.8996 17.1 45.8996Z" fill="#6AAF08"/>
<path d="M17.1 50.4001H18C18.2386 50.4001 18.4676 50.3053 18.6363 50.1365C18.8051 49.9677 18.9 49.7388 18.9 49.5001C18.9 49.2614 18.8051 49.0325 18.6363 48.8637C18.4676 48.6949 18.2386 48.6001 18 48.6001H17.1C16.8613 48.6001 16.6323 48.6949 16.4636 48.8637C16.2948 49.0325 16.2 49.2614 16.2 49.5001C16.2 49.7388 16.2948 49.9677 16.4636 50.1365C16.6323 50.3053 16.8613 50.4001 17.1 50.4001Z" fill="#6AAF08"/>
<path d="M23.4 47.6999H24.3C24.5387 47.6999 24.7676 47.6051 24.9364 47.4363C25.1052 47.2675 25.2 47.0386 25.2 46.7999C25.2 46.5612 25.1052 46.3323 24.9364 46.1635C24.7676 45.9947 24.5387 45.8999 24.3 45.8999H23.4C23.1613 45.8999 22.9324 45.9947 22.7636 46.1635C22.5948 46.3323 22.5 46.5612 22.5 46.7999C22.5 47.0386 22.5948 47.2675 22.7636 47.4363C22.9324 47.6051 23.1613 47.6999 23.4 47.6999Z" fill="#6AAF08"/>
<path d="M29.7 45.8996H30.6C30.8387 45.8996 31.0677 45.8048 31.2364 45.636C31.4052 45.4672 31.5 45.2383 31.5 44.9996C31.5 44.7609 31.4052 44.532 31.2364 44.3632C31.0677 44.1944 30.8387 44.0996 30.6 44.0996H29.7C29.4614 44.0996 29.2324 44.1944 29.0637 44.3632C28.8949 44.532 28.8 44.7609 28.8 44.9996C28.8 45.2383 28.8949 45.4672 29.0637 45.636C29.2324 45.8048 29.4614 45.8996 29.7 45.8996Z" fill="#6AAF08"/>
<path d="M29.7 50.4001H30.6C30.8387 50.4001 31.0677 50.3053 31.2364 50.1365C31.4052 49.9677 31.5 49.7388 31.5 49.5001C31.5 49.2614 31.4052 49.0325 31.2364 48.8637C31.0677 48.6949 30.8387 48.6001 30.6 48.6001H29.7C29.4614 48.6001 29.2324 48.6949 29.0637 48.8637C28.8949 49.0325 28.8 49.2614 28.8 49.5001C28.8 49.7388 28.8949 49.9677 29.0637 50.1365C29.2324 50.3053 29.4614 50.4001 29.7 50.4001Z" fill="#6AAF08"/>
<path d="M36.0001 47.6999H36.9001C37.1388 47.6999 37.3677 47.6051 37.5365 47.4363C37.7053 47.2675 37.8001 47.0386 37.8001 46.7999C37.8001 46.5612 37.7053 46.3323 37.5365 46.1635C37.3677 45.9947 37.1388 45.8999 36.9001 45.8999H36.0001C35.7614 45.8999 35.5325 45.9947 35.3637 46.1635C35.1949 46.3323 35.1001 46.5612 35.1001 46.7999C35.1001 47.0386 35.1949 47.2675 35.3637 47.4363C35.5325 47.6051 35.7614 47.6999 36.0001 47.6999Z" fill="#6AAF08"/>
<path d="M48.6 47.6999H49.4999C49.7386 47.6999 49.9676 47.6051 50.1363 47.4363C50.3051 47.2675 50.3999 47.0386 50.3999 46.7999C50.3999 46.5612 50.3051 46.3323 50.1363 46.1635C49.9676 45.9947 49.7386 45.8999 49.4999 45.8999H48.6C48.3613 45.8999 48.1323 45.9947 47.9636 46.1635C47.7948 46.3323 47.7 46.5612 47.7 46.7999C47.7 47.0386 47.7948 47.2675 47.9636 47.4363C48.1323 47.6051 48.3613 47.6999 48.6 47.6999Z" fill="#6AAF08"/>
<path d="M42.2999 45.8996H43.1999C43.4386 45.8996 43.6675 45.8048 43.8363 45.636C44.0051 45.4672 44.0999 45.2383 44.0999 44.9996C44.0999 44.7609 44.0051 44.532 43.8363 44.3632C43.6675 44.1944 43.4386 44.0996 43.1999 44.0996H42.2999C42.0612 44.0996 41.8323 44.1944 41.6635 44.3632C41.4947 44.532 41.3999 44.7609 41.3999 44.9996C41.3999 45.2383 41.4947 45.4672 41.6635 45.636C41.8323 45.8048 42.0612 45.8996 42.2999 45.8996Z" fill="#6AAF08"/>
<path d="M42.2999 50.4001H43.1999C43.4386 50.4001 43.6675 50.3053 43.8363 50.1365C44.0051 49.9677 44.0999 49.7388 44.0999 49.5001C44.0999 49.2614 44.0051 49.0325 43.8363 48.8637C43.6675 48.6949 43.4386 48.6001 43.1999 48.6001H42.2999C42.0612 48.6001 41.8323 48.6949 41.6635 48.8637C41.4947 49.0325 41.3999 49.2614 41.3999 49.5001C41.3999 49.7388 41.4947 49.9677 41.6635 50.1365C41.8323 50.3053 42.0612 50.4001 42.2999 50.4001Z" fill="#6AAF08"/>
<path d="M51.3 35.1H45.9V32.2272H46.0377C47.4537 32.3037 48.8477 31.8521 49.95 30.96C51.75 29.2419 51.237 26.1504 51.21 26.019C51.1779 25.8339 51.0887 25.6635 50.9549 25.5316C50.8212 25.3998 50.6494 25.3131 50.4639 25.2837C50.328 25.2621 47.1465 24.7824 45.3735 26.4762C45.2379 26.6108 45.113 26.7559 45 26.91C44.8861 26.7558 44.7603 26.6108 44.6238 26.4762C42.8535 24.7851 39.6648 25.2621 39.5307 25.2837C39.3447 25.313 39.1726 25.3999 39.0386 25.5321C38.9046 25.6643 38.8155 25.8352 38.7837 26.0208C38.7612 26.1513 38.2527 29.2482 40.0491 30.9654C41.1534 31.8573 42.5484 32.3093 43.9659 32.2344H44.0991V35.1H30.6V24.6726L34.3089 20.9637C34.5606 20.7136 34.7602 20.416 34.896 20.0881C35.0318 19.7603 35.1011 19.4088 35.1 19.0539V17.1C35.1 16.6226 34.9104 16.1648 34.5728 15.8272C34.2352 15.4896 33.7774 15.3 33.3 15.3V7.2C33.7774 7.2 34.2352 7.01036 34.5728 6.67279C34.9104 6.33523 35.1 5.87739 35.1 5.4V4.5C35.0986 3.30696 34.624 2.1632 33.7804 1.3196C32.9368 0.475994 31.793 0.00142907 30.6 0L23.4 0C22.207 0.00142907 21.0632 0.475994 20.2196 1.3196C19.376 2.1632 18.9014 3.30696 18.9 4.5V5.4C18.9 5.87739 19.0896 6.33523 19.4272 6.67279C19.7648 7.01036 20.2226 7.2 20.7 7.2V15.3C20.2226 15.3 19.7648 15.4896 19.4272 15.8272C19.0896 16.1648 18.9 16.6226 18.9 17.1V19.0539C18.8989 19.4088 18.9682 19.7603 19.104 20.0881C19.2398 20.416 19.4394 20.7136 19.6911 20.9637L23.4 24.6726V35.1H9.9V32.2272H10.0377C11.4537 32.3037 12.8477 31.8521 13.95 30.96C15.75 29.2419 15.237 26.1504 15.21 26.019C15.1779 25.8339 15.0887 25.6635 14.955 25.5316C14.8212 25.3998 14.6494 25.3131 14.4639 25.2837C14.3289 25.2621 11.1465 24.7824 9.3735 26.4762C9.23789 26.6108 9.113 26.7559 9 26.91C8.88608 26.7558 8.7603 26.6108 8.6238 26.4762C6.8535 24.7851 3.6657 25.2621 3.5307 25.2837C3.34474 25.313 3.17265 25.3999 3.03865 25.5321C2.90464 25.6643 2.81548 25.8352 2.7837 26.0208C2.7612 26.1513 2.2527 29.2482 4.0491 30.9654C5.15336 31.8573 6.54843 32.3093 7.9659 32.2344H8.0991V35.1H2.7C1.98392 35.1 1.29716 35.3845 0.790812 35.8908C0.284463 36.3972 0 37.0839 0 37.8L0 52.2C0 52.6774 0.189642 53.1352 0.527208 53.4728C0.864773 53.8104 1.32261 54 1.8 54H52.2C52.6774 54 53.1352 53.8104 53.4728 53.4728C53.8104 53.1352 54 52.6774 54 52.2V37.8C54 37.0839 53.7155 36.3972 53.2092 35.8908C52.7028 35.3845 52.0161 35.1 51.3 35.1ZM49.5 27C49.5904 27.9541 49.306 28.9059 48.7071 29.6541C47.8732 30.2538 46.8492 30.5286 45.8271 30.4272C45.7357 29.4731 46.0198 28.521 46.6191 27.7731C47.4537 27.1741 48.4777 26.8993 49.5 27ZM41.292 29.6541C40.6934 28.9058 40.4094 27.954 40.5 27C41.5219 26.8988 42.5458 27.1733 43.38 27.7722C43.7751 28.1947 44.024 28.7329 44.0901 29.3076C44.0436 29.6795 44.024 30.0543 44.0316 30.429C43.0557 30.5065 42.0841 30.233 41.292 29.6577V29.6541ZM13.5 27C13.5904 27.9541 13.306 28.9059 12.7071 29.6541C11.873 30.2533 10.8492 30.5281 9.8271 30.4272C9.73569 29.4731 10.0198 28.521 10.6191 27.7731C11.4537 27.1741 12.4777 26.8993 13.5 27ZM5.292 29.6577C4.69248 28.9085 4.4084 27.9552 4.5 27C5.52191 26.8993 6.54555 27.1738 7.38 27.7722C7.77506 28.1947 8.02398 28.7329 8.0901 29.3076C8.04356 29.6795 8.02401 30.0543 8.0316 30.429C7.05569 30.5064 6.08421 30.2328 5.292 29.6577ZM20.7 4.5C20.7 3.78392 20.9845 3.09716 21.4908 2.59081C21.9972 2.08446 22.6839 1.8 23.4 1.8H30.6C31.3161 1.8 32.0028 2.08446 32.5092 2.59081C33.0155 3.09716 33.3 3.78392 33.3 4.5V5.4H20.7V4.5ZM22.5 7.2H31.5V15.3H22.5V7.2ZM20.7 19.0539V17.1H33.3V19.0539C33.3001 19.1722 33.2768 19.2894 33.2316 19.3988C33.1864 19.5081 33.12 19.6074 33.0363 19.6911L29.3274 23.4H24.6726L20.9637 19.6911C20.88 19.6074 20.8136 19.5081 20.7684 19.3988C20.7231 19.2894 20.6999 19.1722 20.7 19.0539ZM25.2 25.2H28.8V35.1H25.2V25.2ZM2.7 36.9H51.3C51.5387 36.9 51.7676 36.9948 51.9364 37.1636C52.1052 37.3324 52.2 37.5613 52.2 37.8V40.5H1.8V37.8C1.8 37.5613 1.89482 37.3324 2.0636 37.1636C2.23239 36.9948 2.46131 36.9 2.7 36.9ZM52.2 52.2H1.8V42.3H52.2V52.2Z" fill="#6AAF08"/>
<path d="M7.62029 18.5812C7.46699 18.8948 7.33792 19.2198 7.23419 19.5532C7.16971 19.7819 7.19835 20.0269 7.31385 20.2347C7.42935 20.4424 7.62234 20.596 7.85069 20.662C7.93156 20.6864 8.01551 20.6991 8.09999 20.6998C8.29472 20.6998 8.4842 20.6366 8.63999 20.5198C8.79578 20.4029 8.90946 20.2387 8.96399 20.0518C9.04176 19.8139 9.13588 19.5818 9.24569 19.357C9.29651 19.2502 9.32581 19.1345 9.33192 19.0165C9.33804 18.8984 9.32083 18.7803 9.2813 18.6689C9.24178 18.5575 9.18069 18.455 9.10154 18.3672C9.02238 18.2794 8.92671 18.2081 8.81999 18.1573C8.71326 18.1064 8.59757 18.0771 8.47952 18.071C8.36147 18.0649 8.24338 18.0821 8.13197 18.1216C8.02057 18.1612 7.91805 18.2223 7.83025 18.3014C7.74246 18.3806 7.67111 18.4762 7.62029 18.583V18.5812Z" fill="#6AAF08"/>
<path d="M12.555 13.7155C11.8423 14.0461 11.1696 14.4567 10.5498 14.9395C10.4547 15.0115 10.3749 15.1018 10.315 15.2049C10.2551 15.3081 10.2163 15.4222 10.2009 15.5405C10.1855 15.6588 10.1937 15.779 10.2252 15.894C10.2566 16.0091 10.3106 16.1168 10.3841 16.2108C10.4575 16.3048 10.5489 16.3833 10.653 16.4417C10.757 16.5001 10.8716 16.5372 10.9901 16.5509C11.1086 16.5646 11.2287 16.5545 11.3433 16.5214C11.4579 16.4883 11.5648 16.4327 11.6577 16.3579C12.1697 15.9594 12.7252 15.6203 13.3137 15.3472C13.4238 15.2992 13.5231 15.2298 13.6059 15.1429C13.6887 15.0559 13.7533 14.9534 13.7958 14.8411C13.8384 14.7289 13.8581 14.6092 13.8537 14.4893C13.8493 14.3693 13.821 14.2515 13.7704 14.1426C13.7198 14.0338 13.6479 13.9361 13.559 13.8555C13.4701 13.7748 13.3659 13.7128 13.2527 13.673C13.1395 13.6332 13.0194 13.6164 12.8996 13.6237C12.7798 13.631 12.6626 13.6622 12.555 13.7155Z" fill="#6AAF08"/>
<path d="M17.045 12.629C16.8063 12.6361 16.5803 12.7378 16.4165 12.9117C16.2528 13.0855 16.1649 13.3173 16.172 13.556C16.1792 13.7947 16.2809 14.0207 16.4547 14.1844C16.6286 14.3482 16.8603 14.4361 17.099 14.429H17.1539C17.4239 14.4128 17.7092 14.4038 17.9999 14.4038C18.2386 14.4038 18.4676 14.3089 18.6363 14.1402C18.8051 13.9714 18.8999 13.7425 18.8999 13.5038C18.8999 13.2651 18.8051 13.0361 18.6363 12.8674C18.4676 12.6986 18.2386 12.6038 17.9999 12.6038C17.6723 12.6002 17.3546 12.6101 17.045 12.629Z" fill="#6AAF08"/>
<path d="M4.4703 14.6292C4.2658 14.508 4.02163 14.4726 3.79112 14.5308C3.56061 14.589 3.36249 14.736 3.24 14.9397C3.05473 15.2407 2.89459 15.5565 2.7612 15.8838C2.67682 16.1072 2.68465 16.355 2.78297 16.5727C2.88128 16.7903 3.06203 16.96 3.28545 17.0444C3.50887 17.1288 3.75666 17.1209 3.9743 17.0226C4.19195 16.9243 4.36162 16.7435 4.446 16.5201C4.5418 16.2931 4.65493 16.0737 4.7844 15.864C4.84498 15.7624 4.88491 15.6497 4.90191 15.5326C4.91891 15.4155 4.91264 15.2962 4.88347 15.1815C4.85429 15.0668 4.80278 14.959 4.73188 14.8642C4.66099 14.7694 4.5721 14.6896 4.4703 14.6292Z" fill="#6AAF08"/>
<path d="M7.6222 10.8394C7.03356 11.1604 6.47112 11.5272 5.9401 11.9365C5.8435 12.0077 5.76211 12.0975 5.70071 12.2006C5.63932 12.3037 5.59916 12.418 5.58259 12.5369C5.56603 12.6557 5.57339 12.7767 5.60426 12.8926C5.63513 13.0086 5.68887 13.1172 5.76232 13.2121C5.83578 13.3069 5.92747 13.3862 6.03199 13.4451C6.13652 13.504 6.25177 13.5414 6.37097 13.5552C6.49018 13.5689 6.61092 13.5587 6.72611 13.5251C6.84129 13.4914 6.9486 13.4351 7.0417 13.3594C7.49633 13.0087 7.97781 12.6942 8.4817 12.4189C8.69116 12.3044 8.84652 12.1113 8.91361 11.8822C8.9807 11.653 8.95403 11.4066 8.83945 11.1972C8.72488 10.9877 8.53179 10.8324 8.30267 10.7653C8.07355 10.6982 7.82716 10.7249 7.6177 10.8394H7.6222Z" fill="#6AAF08"/>
<path d="M14.2597 9.86967C14.2294 9.63305 14.1064 9.41814 13.9177 9.27217C13.7291 9.12619 13.4901 9.06109 13.2535 9.09117C12.6049 9.17336 11.9611 9.28992 11.3248 9.44037C11.1111 9.49203 10.9237 9.62013 10.7979 9.80051C10.6722 9.98088 10.6168 10.201 10.6423 10.4194C10.6678 10.6378 10.7723 10.8394 10.9362 10.986C11.1001 11.1326 11.3119 11.2141 11.5318 11.2152C11.6024 11.2155 11.6728 11.2073 11.7415 11.1909C12.3155 11.0555 12.8962 10.9504 13.4812 10.8759C13.7178 10.8456 13.9327 10.7226 14.0787 10.5339C14.2247 10.3452 14.2898 10.1063 14.2597 9.86967Z" fill="#6AAF08"/>
<path d="M18.0694 8.99998C17.7535 8.97568 17.4394 8.95768 17.1406 8.94418C16.902 8.93772 16.6702 9.02455 16.4946 9.18622C16.319 9.34789 16.2134 9.57165 16.2001 9.80998C16.1949 9.92813 16.213 10.0461 16.2535 10.1573C16.2939 10.2684 16.3558 10.3705 16.4358 10.4576C16.5157 10.5448 16.612 10.6154 16.7192 10.6653C16.8264 10.7153 16.9423 10.7436 17.0605 10.7487C17.344 10.7613 17.6329 10.7784 17.929 10.8009C17.9524 10.8009 17.9758 10.8009 17.9992 10.8009C18.2379 10.81 18.4704 10.7238 18.6456 10.5615C18.8208 10.3991 18.9243 10.1738 18.9334 9.93508C18.9425 9.69639 18.8563 9.46387 18.694 9.28867C18.5316 9.11347 18.3063 9.00995 18.0676 9.00088L18.0694 8.99998Z" fill="#6AAF08"/>
<path d="M2.1151 7.74558C1.567 8.05878 1.2763 8.26848 1.2763 8.26848C1.08442 8.40817 0.95549 8.618 0.91757 8.85229C0.879651 9.08658 0.935813 9.32637 1.07383 9.51945C1.21185 9.71253 1.42055 9.84328 1.6545 9.88324C1.88846 9.92319 2.12872 9.86911 2.323 9.73278C2.3419 9.71928 2.5786 9.55278 3.0079 9.30798C3.11345 9.25093 3.20653 9.17336 3.28167 9.07981C3.3568 8.98627 3.41248 8.87865 3.44541 8.76328C3.47835 8.6479 3.48789 8.52711 3.47346 8.408C3.45903 8.28888 3.42094 8.17386 3.36141 8.06969C3.30188 7.96551 3.22212 7.87429 3.12683 7.80139C3.03153 7.72849 2.92262 7.67538 2.8065 7.64518C2.69038 7.61499 2.5694 7.60831 2.45066 7.62555C2.33192 7.64279 2.21783 7.6836 2.1151 7.74558Z" fill="#6AAF08"/>
<path d="M7.23323 5.69454C6.64013 5.84844 6.04883 6.02844 5.47463 6.22914C5.27388 6.29931 5.10445 6.4383 4.9964 6.62147C4.88835 6.80465 4.84866 7.02016 4.88435 7.22981C4.92005 7.43946 5.02883 7.6297 5.19141 7.76679C5.35399 7.90388 5.55987 7.97897 5.77253 7.97874C5.87394 7.97861 5.97462 7.96158 6.07043 7.92834C6.59693 7.74024 7.14143 7.57824 7.68593 7.43604C7.80422 7.41023 7.91608 7.36082 8.01482 7.29076C8.11356 7.22071 8.19715 7.13145 8.26059 7.02833C8.32403 6.92522 8.36601 6.81036 8.38403 6.69064C8.40204 6.57092 8.39571 6.44879 8.36542 6.33158C8.33513 6.21436 8.28151 6.10446 8.20775 6.00845C8.13399 5.91244 8.04162 5.8323 7.93617 5.77282C7.83072 5.71335 7.71435 5.67576 7.59403 5.66231C7.47371 5.64886 7.35192 5.65982 7.23593 5.69454H7.23323Z" fill="#6AAF08"/>
<path d="M12.6901 4.97607C12.0781 4.97607 11.4607 5.01027 10.855 5.06607C10.6163 5.0767 10.3916 5.1817 10.2303 5.358C10.069 5.53429 9.98441 5.76743 9.99503 6.00612C10.0057 6.24482 10.1107 6.46952 10.287 6.63079C10.4632 6.79206 10.6964 6.8767 10.9351 6.86607H11.0161C11.5732 6.81567 12.1402 6.78777 12.7027 6.78417C12.8209 6.78376 12.9378 6.76007 13.0469 6.71446C13.1559 6.66885 13.2549 6.60221 13.3382 6.51834C13.4214 6.43448 13.4874 6.33503 13.5322 6.22568C13.5771 6.11633 13.5999 5.99921 13.5995 5.88102C13.5991 5.76283 13.5754 5.64588 13.5298 5.53685C13.4842 5.42781 13.4176 5.32883 13.3337 5.24555C13.2498 5.16227 13.1504 5.09632 13.041 5.05148C12.9317 5.00663 12.8146 4.98376 12.6964 4.98417L12.6901 4.97607Z" fill="#6AAF08"/>
<path d="M17.28 5.41825C16.9692 5.35825 16.6617 5.30305 16.3575 5.25265C16.2407 5.23427 16.1215 5.23907 16.0065 5.26677C15.8916 5.29448 15.7833 5.34455 15.6877 5.41413C15.5922 5.4837 15.5112 5.57142 15.4496 5.67227C15.3879 5.77312 15.3467 5.88512 15.3283 6.00189C15.31 6.11867 15.3148 6.23791 15.3425 6.35283C15.3702 6.46775 15.4202 6.57608 15.4898 6.67164C15.5594 6.76721 15.6471 6.84814 15.748 6.9098C15.8488 6.97147 15.9608 7.01267 16.0776 7.03104C16.3572 7.07484 16.6404 7.12524 16.9272 7.18224C16.984 7.19411 17.0419 7.20014 17.1 7.20024C17.3232 7.20047 17.5385 7.11775 17.7041 6.96816C17.8698 6.81856 17.9739 6.61276 17.9963 6.39069C18.0188 6.16863 17.9579 5.94616 17.8255 5.76646C17.6931 5.58676 17.4987 5.46266 17.28 5.41825Z" fill="#6AAF08"/>
<path d="M44.7542 19.3555C44.8638 19.58 44.9576 19.8119 45.035 20.0494C45.1007 20.2789 45.255 20.4729 45.4638 20.5887C45.6726 20.7045 45.9188 20.7326 46.1483 20.6668C46.3778 20.601 46.5718 20.4468 46.6876 20.238C46.8033 20.0292 46.8315 19.783 46.7657 19.5535C46.662 19.2201 46.5329 18.8952 46.3796 18.5815C46.3288 18.4748 46.2574 18.3791 46.1696 18.2999C46.0818 18.2208 45.9793 18.1597 45.8679 18.1202C45.7565 18.0807 45.6384 18.0635 45.5204 18.0696C45.4023 18.0757 45.2866 18.105 45.1799 18.1558C45.0732 18.2066 44.9775 18.278 44.8983 18.3658C44.8192 18.4536 44.7581 18.5561 44.7186 18.6675C44.679 18.7789 44.6618 18.897 44.668 19.015C44.6741 19.1331 44.7034 19.2488 44.7542 19.3555Z" fill="#6AAF08"/>
<path d="M41.445 13.7155C41.3374 13.6622 41.2203 13.631 41.1005 13.6237C40.9807 13.6164 40.8606 13.6332 40.7473 13.673C40.6341 13.7128 40.53 13.7748 40.4411 13.8555C40.3521 13.9361 40.2803 14.0338 40.2297 14.1426C40.179 14.2515 40.1507 14.3693 40.1463 14.4893C40.142 14.6092 40.1616 14.7289 40.2042 14.8411C40.2467 14.9534 40.3113 15.0559 40.3941 15.1429C40.4769 15.2298 40.5763 15.2992 40.6863 15.3472C41.2748 15.6203 41.8304 15.9594 42.3423 16.3579C42.4349 16.4351 42.5421 16.4929 42.6575 16.5279C42.7729 16.5629 42.8942 16.5744 43.0141 16.5616C43.134 16.5488 43.2501 16.5121 43.3555 16.4536C43.461 16.395 43.5536 16.3159 43.6278 16.2209C43.7021 16.1259 43.7565 16.0169 43.7878 15.9005C43.8192 15.784 43.8268 15.6625 43.8102 15.543C43.7936 15.4236 43.7532 15.3087 43.6914 15.2052C43.6295 15.1016 43.5475 15.0116 43.4502 14.9404C42.8305 14.4573 42.1577 14.0463 41.445 13.7155Z" fill="#6AAF08"/>
<path d="M36.0001 14.4001C36.2908 14.4001 36.5725 14.4091 36.8461 14.4253H36.901C37.0192 14.4288 37.1369 14.4091 37.2475 14.3671C37.358 14.3252 37.4592 14.2619 37.5453 14.1808C37.6314 14.0997 37.7007 14.0025 37.7492 13.8947C37.7977 13.7868 37.8245 13.6705 37.828 13.5523C37.8315 13.4341 37.8118 13.3164 37.7698 13.2058C37.7279 13.0953 37.6646 12.9941 37.5835 12.908C37.5024 12.8219 37.4052 12.7526 37.2974 12.7041C37.1895 12.6556 37.0732 12.6288 36.955 12.6253C36.6454 12.61 36.3277 12.6001 36.0001 12.6001C35.7614 12.6001 35.5325 12.6949 35.3637 12.8637C35.1949 13.0325 35.1001 13.2614 35.1001 13.5001C35.1001 13.7388 35.1949 13.9677 35.3637 14.1365C35.5325 14.3053 35.7614 14.4001 36.0001 14.4001Z" fill="#6AAF08"/>
<path d="M49.5297 14.6292C49.4282 14.69 49.3398 14.7701 49.2693 14.865C49.1989 14.96 49.1478 15.0678 49.1191 15.1825C49.0903 15.2972 49.0844 15.4164 49.1018 15.5333C49.1191 15.6503 49.1593 15.7627 49.2201 15.8641C49.3493 16.0736 49.4624 16.2926 49.5585 16.5193C49.6233 16.69 49.7385 16.8369 49.8888 16.9406C50.0391 17.0443 50.2174 17.0998 50.4 17.0998C50.5078 17.0994 50.6147 17.0802 50.7159 17.0431C50.8267 17.0016 50.9282 16.9388 51.0147 16.8581C51.1011 16.7774 51.1709 16.6804 51.2198 16.5728C51.2688 16.4651 51.2961 16.3489 51.3001 16.2306C51.3041 16.1124 51.2848 15.9946 51.2433 15.8839C51.1099 15.5565 50.9497 15.2408 50.7645 14.9398C50.7038 14.8383 50.6237 14.7497 50.5288 14.6792C50.4339 14.6086 50.3261 14.5575 50.2114 14.5286C50.0967 14.4998 49.9775 14.4938 49.8605 14.5111C49.7435 14.5284 49.6311 14.5685 49.5297 14.6292Z" fill="#6AAF08"/>
<path d="M39.7403 9.86967C39.7103 10.1063 39.7754 10.3452 39.9213 10.5339C40.0673 10.7226 40.2822 10.8456 40.5188 10.8759C41.1039 10.9504 41.6845 11.0555 42.2585 11.1909C42.3272 11.2073 42.3976 11.2155 42.4682 11.2152C42.6881 11.2141 42.9 11.1326 43.0639 10.986C43.2277 10.8394 43.3323 10.6378 43.3577 10.4194C43.3832 10.201 43.3279 9.98088 43.2021 9.80051C43.0764 9.62013 42.889 9.49203 42.6752 9.44037C42.039 9.28992 41.3952 9.17336 40.7465 9.09117C40.5099 9.06109 40.271 9.12619 40.0823 9.27217C39.8936 9.41814 39.7706 9.63305 39.7403 9.86967Z" fill="#6AAF08"/>
<path d="M45.1557 11.1978C45.0991 11.3017 45.0635 11.4156 45.051 11.5332C45.0384 11.6508 45.0492 11.7697 45.0826 11.8831C45.1161 11.9965 45.1715 12.1022 45.2458 12.1942C45.3201 12.2862 45.4118 12.3626 45.5157 12.4191C46.0196 12.6944 46.5011 13.0089 46.9557 13.3596C47.0491 13.4322 47.1559 13.4856 47.27 13.5168C47.384 13.548 47.5031 13.5565 47.6205 13.5417C47.7378 13.5269 47.8511 13.4891 47.9538 13.4306C48.0566 13.372 48.1468 13.2938 48.2193 13.2003C48.2918 13.1069 48.3452 13.0001 48.3764 12.8861C48.4077 12.772 48.4161 12.6529 48.4013 12.5356C48.3865 12.4182 48.3488 12.3049 48.2902 12.2022C48.2317 12.0995 48.1534 12.0093 48.06 11.9367C47.5301 11.5276 46.9689 11.1608 46.3815 10.8396C46.2776 10.7823 46.1633 10.746 46.0454 10.733C45.9274 10.7199 45.808 10.7304 45.6941 10.7637C45.5801 10.797 45.4739 10.8525 45.3815 10.927C45.2891 11.0015 45.2124 11.0936 45.1557 11.1978Z" fill="#6AAF08"/>
<path d="M35.1 9.96962C35.1175 10.1961 35.22 10.4076 35.3869 10.5617C35.5538 10.7157 35.7728 10.801 36 10.8003C36.0234 10.8003 36.0468 10.8003 36.0702 10.8003C36.3663 10.7778 36.6552 10.7607 36.9387 10.7481C37.0569 10.743 37.1729 10.7146 37.2801 10.6646C37.3874 10.6146 37.4837 10.544 37.5636 10.4568C37.6436 10.3696 37.7055 10.2675 37.746 10.1564C37.7865 10.0452 37.8047 9.92716 37.7995 9.80897C37.7944 9.69078 37.766 9.57476 37.7161 9.46753C37.6661 9.36031 37.5955 9.26397 37.5083 9.18404C37.421 9.1041 37.319 9.04212 37.2078 9.00164C37.0966 8.96116 36.9786 8.94298 36.8604 8.94812C36.5571 8.96162 36.2475 8.97962 35.9316 9.00392C35.8135 9.01257 35.6983 9.04444 35.5926 9.09769C35.4869 9.15094 35.3927 9.22452 35.3154 9.31423C35.2382 9.40393 35.1794 9.508 35.1424 9.62046C35.1055 9.73292 35.091 9.85157 35.1 9.96962Z" fill="#6AAF08"/>
<path d="M51.6772 9.73278C51.8715 9.86911 52.1117 9.92319 52.3457 9.88324C52.5796 9.84328 52.7883 9.71253 52.9263 9.51945C53.0644 9.32637 53.1205 9.08658 53.0826 8.85229C53.0447 8.618 52.9158 8.40817 52.7239 8.26848C52.7239 8.26848 52.4332 8.05878 51.8842 7.74558C51.7814 7.6836 51.6673 7.64279 51.5486 7.62555C51.4299 7.60831 51.3089 7.61499 51.1928 7.64518C51.0767 7.67538 50.9677 7.72849 50.8724 7.80139C50.7772 7.87429 50.6974 7.96551 50.6379 8.06969C50.5783 8.17386 50.5402 8.28888 50.5258 8.408C50.5114 8.52711 50.5209 8.6479 50.5539 8.76328C50.5868 8.87865 50.6425 8.98627 50.7176 9.07981C50.7927 9.17336 50.8858 9.25093 50.9914 9.30798C51.4216 9.55368 51.6601 9.72018 51.6772 9.73278Z" fill="#6AAF08"/>
<path d="M48.5254 6.22914C47.9512 6.02844 47.3554 5.84844 46.7668 5.69454C46.6508 5.65982 46.529 5.64886 46.4087 5.66231C46.2883 5.67576 46.172 5.71335 46.0665 5.77282C45.9611 5.8323 45.8687 5.91244 45.7949 6.00845C45.7212 6.10446 45.6676 6.21436 45.6373 6.33158C45.607 6.44879 45.6006 6.57092 45.6187 6.69064C45.6367 6.81036 45.6787 6.92522 45.7421 7.02833C45.8055 7.13145 45.8891 7.22071 45.9879 7.29076C46.0866 7.36082 46.1985 7.41023 46.3168 7.43604C46.8568 7.57824 47.4058 7.74384 47.9368 7.92834C48.0326 7.96158 48.1332 7.97861 48.2347 7.97874C48.4473 7.97897 48.6532 7.90388 48.8158 7.76679C48.9784 7.6297 49.0871 7.43946 49.1228 7.22981C49.1585 7.02016 49.1188 6.80465 49.0108 6.62147C48.9027 6.4383 48.7333 6.29931 48.5326 6.22914H48.5254Z" fill="#6AAF08"/>
<path d="M43.1496 5.06463C42.5439 5.01063 41.9265 4.98093 41.3145 4.97463C41.1963 4.9738 41.0791 4.99626 40.9696 5.04073C40.8601 5.08519 40.7604 5.15079 40.6763 5.23378C40.5921 5.31677 40.5251 5.41552 40.4791 5.5244C40.4332 5.63327 40.4091 5.75014 40.4082 5.86833C40.4074 5.98652 40.4299 6.10372 40.4743 6.21323C40.5188 6.32274 40.5844 6.42242 40.6674 6.50657C40.7504 6.59073 40.8491 6.65772 40.958 6.70371C41.0669 6.74971 41.1837 6.77381 41.3019 6.77463C41.8644 6.77463 42.4314 6.80613 42.9885 6.85653H43.0695C43.1877 6.86179 43.3058 6.84372 43.417 6.80335C43.5282 6.76298 43.6304 6.7011 43.7177 6.62125C43.8049 6.54139 43.8757 6.44513 43.9257 6.33795C43.9758 6.23077 44.0043 6.11477 44.0096 5.99658C44.0148 5.87839 43.9968 5.76032 43.9564 5.64912C43.916 5.53791 43.8541 5.43575 43.7743 5.34846C43.6944 5.26116 43.5982 5.19045 43.491 5.14037C43.3838 5.09028 43.2678 5.06179 43.1496 5.05653V5.06463Z" fill="#6AAF08"/>
<path d="M37.0799 7.18225C37.3661 7.12525 37.6493 7.07485 37.9295 7.03105C38.1653 6.99393 38.3768 6.86465 38.5173 6.67165C38.6578 6.47865 38.7159 6.23773 38.6788 6.0019C38.6416 5.76607 38.5124 5.55464 38.3194 5.41413C38.1264 5.27362 37.8854 5.21553 37.6496 5.25265C37.3448 5.30005 37.0373 5.35525 36.7271 5.41825C36.509 5.46252 36.315 5.58605 36.1826 5.76499C36.0502 5.94393 35.9888 6.16559 36.0103 6.38714C36.0318 6.60868 36.1346 6.81441 36.2989 6.96458C36.4632 7.11476 36.6773 7.19872 36.8999 7.20025C36.9604 7.20064 37.0207 7.19461 37.0799 7.18225Z" fill="#6AAF08"/>
<path d="M27.0001 9C26.7614 9 26.5325 9.09482 26.3637 9.2636C26.1949 9.43239 26.1001 9.66131 26.1001 9.9V11.7C26.1001 11.9387 26.1949 12.1676 26.3637 12.3364C26.5325 12.5052 26.7614 12.6 27.0001 12.6C27.2388 12.6 27.4677 12.5052 27.6365 12.3364C27.8053 12.1676 27.9001 11.9387 27.9001 11.7V9.9C27.9001 9.66131 27.8053 9.43239 27.6365 9.2636C27.4677 9.09482 27.2388 9 27.0001 9Z" fill="#6AAF08"/>
</g>
<defs>
<clipPath id="clip0">
<rect width="54" height="54" fill="white"/>
</clipPath>
</defs>
</svg>
