<svg width="56" height="56" viewBox="0 0 56 56" fill="none" xmlns="http://www.w3.org/2000/svg">
<g clip-path="url(#clip0)">
<path d="M32.3181 2.61794C31.5271 0.949747 29.846 -0.11377 28 -0.11377C26.1539 -0.11377 24.4724 0.949747 23.6819 2.61794H8.42273C6.78922 2.61972 5.46516 3.94378 5.46338 5.57729V52.9269C5.46516 54.5604 6.78922 55.8845 8.42273 55.8863H47.5772C49.2107 55.8845 50.5348 54.5604 50.5366 52.9269V5.57729C50.5348 3.94378 49.2107 2.61972 47.5772 2.61794H32.3181ZM28 1.25208C29.8851 1.25431 31.4124 2.78156 31.4146 4.66672V6.7155C31.4146 7.09253 31.7205 7.39843 32.0975 7.39843H38.9268V11.496H17.0731V7.39843H23.9024C24.2794 7.39843 24.5853 7.09253 24.5853 6.7155V4.66672C24.5876 2.78156 26.1148 1.25431 28 1.25208ZM43.8914 41.7102H40.2131C38.5791 41.712 37.2555 43.036 37.2537 44.6695V48.2509H12.5639C12.3127 48.2509 12.1086 48.0473 12.1086 47.7956V10.7086C12.1086 10.4569 12.3127 10.2533 12.5639 10.2533H15.7073V12.1789C15.7073 12.556 16.0132 12.8618 16.3902 12.8618H39.6097C39.9868 12.8618 40.2927 12.556 40.2927 12.1789V10.2533H43.4361C43.6873 10.2533 43.8914 10.4569 43.8914 10.7086V41.7102ZM42.9537 43.076L38.6196 47.4101V44.6695C38.6205 43.7901 39.3332 43.0769 40.2131 43.076H42.9537ZM49.1707 5.57729V52.9269C49.1698 53.8064 48.4567 54.5195 47.5772 54.5204H8.42273C7.54284 54.5195 6.83012 53.8064 6.82923 52.9269V5.57729C6.83012 4.6974 7.54284 3.98468 8.42273 3.98379H23.2688C23.2364 4.2101 23.2199 4.43819 23.2195 4.66672V6.03257H16.3902C16.0132 6.03257 15.7073 6.33847 15.7073 6.7155V8.88744H12.5639C11.5586 8.88833 10.7441 9.70331 10.7427 10.7086V47.7956C10.7441 48.8009 11.5586 49.6159 12.5639 49.6168H37.4961C37.5885 49.6163 37.681 49.6092 37.7726 49.5963C38.0216 49.659 38.2852 49.5754 38.4524 49.3798C38.6338 49.2837 38.7997 49.161 38.9446 49.0156L44.657 43.3032C45.0425 42.92 45.2586 42.3984 45.2572 41.8547V10.7086C45.2559 9.70331 44.4414 8.88833 43.4361 8.88744H40.2927V6.7155C40.2927 6.33847 39.9868 6.03257 39.6097 6.03257H32.7805V4.66672C32.78 4.43819 32.7636 4.2101 32.7311 3.98379H47.5772C48.4567 3.98468 49.1698 4.6974 49.1707 5.57729Z" fill="#6AAF08"/>
<path d="M39.6096 18.687H23.5311C23.1536 18.687 22.8481 18.9929 22.8481 19.3699C22.8481 19.747 23.1536 20.0529 23.5311 20.0529H39.6096C39.9867 20.0529 40.2926 19.747 40.2926 19.3699C40.2926 18.9929 39.9867 18.687 39.6096 18.687Z" fill="#6AAF08"/>
<path d="M39.6096 24.9146H23.5311C23.1536 24.9146 22.8481 25.22 22.8481 25.5975C22.8481 25.9745 23.1536 26.2804 23.5311 26.2804H39.6096C39.9867 26.2804 40.2926 25.9745 40.2926 25.5975C40.2926 25.22 39.9867 24.9146 39.6096 24.9146Z" fill="#6AAF08"/>
<path d="M39.6096 31.1421H23.5311C23.1536 31.1421 22.8481 31.448 22.8481 31.825C22.8481 32.2025 23.1536 32.5079 23.5311 32.5079H39.6096C39.9867 32.5079 40.2926 32.2025 40.2926 31.825C40.2926 31.448 39.9867 31.1421 39.6096 31.1421Z" fill="#6AAF08"/>
<path d="M39.6096 37.3696H23.5311C23.1536 37.3696 22.8481 37.6755 22.8481 38.0526C22.8481 38.4296 23.1536 38.7355 23.5311 38.7355H39.6096C39.9867 38.7355 40.2926 38.4296 40.2926 38.0526C40.2926 37.6755 39.9867 37.3696 39.6096 37.3696Z" fill="#6AAF08"/>
<path d="M17.5284 17.5488C16.5227 17.5488 15.7073 18.3643 15.7073 19.37C15.7073 20.3757 16.5227 21.1911 17.5284 21.1911C18.5341 21.1911 19.3496 20.3757 19.3496 19.37C19.3482 18.3647 18.5337 17.5502 17.5284 17.5488ZM17.5284 19.8253C17.2768 19.8253 17.0731 19.6216 17.0731 19.37C17.0731 19.1183 17.2768 18.9147 17.5284 18.9147C17.7801 18.9147 17.9837 19.1183 17.9837 19.37C17.9837 19.6216 17.7801 19.8253 17.5284 19.8253Z" fill="#6AAF08"/>
<path d="M17.5284 23.7764C16.5227 23.7764 15.7073 24.5918 15.7073 25.5975C15.7073 26.6032 16.5227 27.4186 17.5284 27.4186C18.5341 27.4186 19.3496 26.6032 19.3496 25.5975C19.3482 24.5922 18.5337 23.7773 17.5284 23.7764ZM17.5284 26.0528C17.2768 26.0528 17.0731 25.8487 17.0731 25.5975C17.0731 25.3459 17.2768 25.1422 17.5284 25.1422C17.7801 25.1422 17.9837 25.3459 17.9837 25.5975C17.9837 25.8487 17.7801 26.0528 17.5284 26.0528Z" fill="#6AAF08"/>
<path d="M17.5284 30.0039C16.5227 30.0039 15.7073 30.8193 15.7073 31.825C15.7073 32.8308 16.5227 33.6462 17.5284 33.6462C18.5341 33.6462 19.3496 32.8308 19.3496 31.825C19.3482 30.8198 18.5337 30.0052 17.5284 30.0039ZM17.5284 32.2803C17.2768 32.2803 17.0731 32.0767 17.0731 31.825C17.0731 31.5738 17.2768 31.3698 17.5284 31.3698C17.7801 31.3698 17.9837 31.5738 17.9837 31.825C17.9837 32.0767 17.7801 32.2803 17.5284 32.2803Z" fill="#6AAF08"/>
<path d="M17.5284 36.2314C16.5227 36.2314 15.7073 37.0469 15.7073 38.0526C15.7073 39.0583 16.5227 39.8737 17.5284 39.8737C18.5341 39.8737 19.3496 39.0583 19.3496 38.0526C19.3482 37.0473 18.5337 36.2328 17.5284 36.2314ZM17.5284 38.5079C17.2768 38.5079 17.0731 38.3038 17.0731 38.0526C17.0731 37.8009 17.2768 37.5973 17.5284 37.5973C17.7801 37.5973 17.9837 37.8009 17.9837 38.0526C17.9837 38.3038 17.7801 38.5079 17.5284 38.5079Z" fill="#6AAF08"/>
</g>
<defs>
<clipPath id="clip0">
<rect width="56" height="56" fill="white"/>
</clipPath>
</defs>
</svg>
