<svg width="63" height="63" viewBox="0 0 63 63" fill="none" xmlns="http://www.w3.org/2000/svg">
<path d="M36.6291 38.0981C32.6705 38.0981 29.4484 41.3203 29.4484 45.2789C29.4484 49.2376 32.6705 52.4597 36.6291 52.4597C40.5878 52.4597 43.8099 49.2376 43.8099 45.2789C43.8099 41.3203 40.5878 38.0981 36.6291 38.0981ZM36.6291 50.408C33.8009 50.408 31.5 48.1071 31.5 45.2789C31.5 42.4507 33.8009 40.1498 36.6291 40.1498C39.4573 40.1498 41.7583 42.4507 41.7583 45.2789C41.7583 48.1071 39.4573 50.408 36.6291 50.408Z" fill="#6AAF08"/>
<path d="M48.9391 19.6333C44.9804 19.6333 41.7583 22.8554 41.7583 26.8141C41.7583 30.7727 44.9804 33.9948 48.9391 33.9948C52.8977 33.9948 56.1198 30.7727 56.1198 26.8141C56.1198 22.8554 52.8977 19.6333 48.9391 19.6333ZM48.9391 31.9432C46.1109 31.9432 43.81 29.6423 43.81 26.8141C43.81 23.9859 46.1109 21.685 48.9391 21.685C51.7673 21.685 54.0682 23.9859 54.0682 26.8141C54.0682 29.6423 51.7673 31.9432 48.9391 31.9432Z" fill="#6AAF08"/>
<path d="M13.0351 17.5815C9.07649 17.5815 5.85437 20.8037 5.85437 24.7623C5.85437 28.721 9.07649 31.9431 13.0351 31.9431C16.9938 31.9431 20.2159 28.721 20.2159 24.7623C20.2159 20.8037 16.9938 17.5815 13.0351 17.5815ZM13.0351 29.8914C10.2069 29.8914 7.90602 27.5905 7.90602 24.7623C7.90602 21.9341 10.2069 19.6332 13.0351 19.6332C15.8633 19.6332 18.1643 21.9341 18.1643 24.7623C18.1643 27.5905 15.8633 29.8914 13.0351 29.8914Z" fill="#6AAF08"/>
<path d="M63 41.901L61.5495 40.4504L57.1456 44.8543L52.7418 40.4504L51.2913 41.901L55.6951 46.3048L51.2913 50.7087L52.7418 52.1592L57.1456 47.7553L61.5495 52.1592L63 50.7087L58.5962 46.3048L63 41.901Z" fill="#6AAF08"/>
<path d="M11.7088 1.89363L10.2582 0.443115L5.85438 4.84698L1.45052 0.443115L0 1.89363L4.40387 6.2975L0 10.7014L1.45052 12.1519L5.85438 7.74801L10.2582 12.1519L11.7088 10.7014L7.3049 6.2975L11.7088 1.89363Z" fill="#6AAF08"/>
<path d="M58.8968 7.02278L57.4462 5.57227L53.0424 9.97613L48.6385 5.57227L47.188 7.02278L51.5919 11.4266L47.188 15.8305L48.6385 17.281L53.0424 12.8772L57.4462 17.281L58.8968 15.8305L54.4929 11.4266L58.8968 7.02278Z" fill="#6AAF08"/>
<path d="M38.1145 17.6903L31.9595 14.6128C31.6928 14.4795 31.383 14.4692 31.1081 14.5831C30.8332 14.6969 30.6208 14.9247 30.5285 15.2058L28.4769 21.3607L30.4218 22.0101L31.6969 18.1837C31.7944 18.3786 31.8836 18.5551 31.9575 18.6925C32.5422 19.785 32.7566 21.0171 32.6735 22.8092C32.4889 26.7976 31.0671 30.8157 28.6687 34.124C28.1907 34.7826 27.5813 35.4207 26.9463 36.07C25.065 37.9955 22.6604 39.3639 20.1143 40.8124C16.4911 42.8743 12.7725 45.0255 10.6429 48.9C9.79762 48.5512 8.87437 48.3563 7.906 48.3563C3.94734 48.3563 0.72522 51.5784 0.72522 55.5371C0.72522 59.4957 3.94734 62.7179 7.906 62.7179C11.8647 62.7179 15.0868 59.4957 15.0868 55.5371C15.0868 53.2792 14.0374 51.2645 12.4032 49.9474C14.2456 46.5426 17.5847 44.6131 21.1289 42.5963C23.6863 41.1407 26.3308 39.6358 28.4143 37.5051C29.1047 36.7983 29.7704 36.0998 30.3295 35.3283C32.9597 31.7 34.521 27.2869 34.7231 22.9035C34.7888 21.4807 34.7385 19.6271 33.8194 17.837L37.1964 19.5255L38.1145 17.6903ZM13.0351 55.5371C13.0351 58.3653 10.7342 60.6662 7.906 60.6662C5.0778 60.6662 2.77687 58.3653 2.77687 55.5371C2.77687 52.7089 5.0778 50.408 7.906 50.408C10.7342 50.408 13.0351 52.7089 13.0351 55.5371Z" fill="#6AAF08"/>
<path d="M24.4127 0.282227L22.7744 1.51424C23.0637 1.90098 23.4412 2.46005 23.8659 3.13299L25.6006 2.03741C25.141 1.30908 24.7409 0.718202 24.4127 0.282227Z" fill="#6AAF08"/>
<path d="M30.5952 11.1558L28.7365 12.0236C29.0739 12.7478 29.3355 13.3582 29.5151 13.8373L31.4354 13.1192C31.2384 12.5899 30.9553 11.9303 30.5952 11.1558Z" fill="#6AAF08"/>
<path d="M26.6838 3.82007L24.9174 4.86231C25.2477 5.42446 25.5882 6.01739 25.9288 6.62467L27.7179 5.62039C27.3711 5.00079 27.0224 4.39453 26.6838 3.82007Z" fill="#6AAF08"/>
<path d="M28.7149 7.44238L26.9064 8.40768C27.2316 9.01908 27.5496 9.62637 27.8471 10.2111L29.6761 9.28169C29.3725 8.68466 29.0493 8.06506 28.7149 7.44238Z" fill="#6AAF08"/>
</svg>
