<svg width="67" height="67" viewBox="0 0 67 67" fill="none" xmlns="http://www.w3.org/2000/svg">
<g clip-path="url(#clip0)">
<path d="M67 37.2388C67 28.6625 60.0227 21.6852 51.4464 21.6852C48.406 21.6852 45.4314 22.586 42.9086 24.2418C42.2535 21.3731 41.3827 18.6093 40.331 16.1363C37.5052 9.49195 33.8045 5.83252 29.9107 5.83252C26.0126 5.83252 22.3119 9.47684 19.4909 16.0941C18.4971 18.4252 17.6645 21.0204 17.0231 23.7229L13.1185 9.4061C12.9765 8.88566 12.5037 8.52448 11.9643 8.52448C11.4248 8.52448 10.952 8.88565 10.81 9.40625L0.0421663 48.8884C-0.0559409 49.2481 0.0192845 49.633 0.245559 49.9293C0.471983 50.2257 0.823584 50.3995 1.19642 50.3995H10.7679V59.9709C10.7679 60.6316 11.3036 61.1673 11.9643 61.1673C12.625 61.1673 13.1607 60.6316 13.1607 59.9709V50.3995H22.7321C23.105 50.3995 23.4566 50.2257 23.6829 49.9291C23.8671 49.6879 23.9492 49.388 23.9212 49.0907C25.4015 49.7719 27.0164 50.2086 28.7143 50.3492V59.9709C28.7143 60.6316 29.25 61.1673 29.9107 61.1673C30.5714 61.1673 31.1071 60.6316 31.1071 59.9709V50.3494C34.2131 50.0923 37.042 48.8438 39.2758 46.9216C41.9698 50.3054 45.9435 52.4132 50.25 52.7446V59.9709C50.25 60.6316 50.7857 61.1673 51.4464 61.1673C52.1072 61.1673 52.6429 60.6316 52.6429 59.9709V52.7467C60.6622 52.1338 67 45.4125 67 37.2388ZM21.1657 48.0066H13.1607V46.1094L15.2779 43.9922C15.7451 43.5248 15.7451 42.7675 15.2779 42.3001C14.8106 41.833 14.0532 41.833 13.5859 42.3001L13.1607 42.7251V34.8459C13.1607 34.1852 12.625 33.6495 11.9643 33.6495C11.3036 33.6495 10.7679 34.1852 10.7679 34.8459V40.3324L9.22102 38.7856C8.75366 38.3185 7.99632 38.3185 7.52897 38.7856C7.06176 39.2529 7.06176 40.0103 7.52897 40.4776L10.7679 43.7165V45.6129C10.7679 45.6133 10.7679 45.6139 10.7679 45.6144V48.0066H2.76285L11.9643 14.2679L16.0179 29.131C15.7025 31.4555 15.5349 33.7836 15.5349 36.0235C15.5349 40.5711 17.6579 44.6316 20.9643 47.2678L21.1657 48.0066ZM31.1071 46.1094L35.5425 41.6741C36.0097 41.2067 36.0097 40.4494 35.5425 39.982C35.0751 39.515 34.3178 39.515 33.8504 39.982L31.1071 42.7251V37.7344L34.346 34.4955C34.8132 34.0281 34.8132 33.2708 34.346 32.8035C33.8787 32.3364 33.1213 32.3364 32.654 32.8035L31.1071 34.3501V31.2566C31.1071 30.5959 30.5714 30.0602 29.9107 30.0602C29.25 30.0602 28.7143 30.5959 28.7143 31.2566V37.238C28.7143 37.2385 28.7143 37.2391 28.7143 37.2395V40.3323L25.971 37.589C25.5037 37.122 24.7463 37.122 24.279 37.589C23.8118 38.0564 23.8118 38.8137 24.279 39.2811L28.7143 43.7165V45.6129C28.7143 45.6133 28.7143 45.6139 28.7143 45.6144V47.9465C22.6666 47.3441 17.9277 42.227 17.9277 36.0235C17.9277 29.6609 19.3349 22.5613 21.692 17.0326C24.0783 11.4355 27.0738 8.22538 29.9107 8.22538C32.7424 8.22538 35.7378 11.4502 38.129 17.0728C40.4864 22.6159 41.8937 29.7004 41.8937 36.0236C41.8937 42.2273 37.1548 47.3444 31.1071 47.9466V46.1094ZM52.6429 50.3446V48.5024L57.0782 44.0671C57.5454 43.5997 57.5454 42.8424 57.0782 42.375C56.6108 41.908 55.8535 41.908 55.3861 42.375L52.6429 45.118V37.2388C52.6429 36.578 52.1072 36.0423 51.4464 36.0423C50.7857 36.0423 50.25 36.578 50.25 37.2388V42.7253L47.5067 39.982C47.0394 39.515 46.282 39.515 45.8147 39.982C45.3475 40.4494 45.3475 41.2067 45.8147 41.6741L50.25 46.1094V48.0057C50.25 48.0062 50.25 48.0068 50.25 48.0072V50.3447C46.5803 50.0106 43.2114 48.1497 40.9678 45.2004C43.0391 42.709 44.2865 39.5093 44.2865 36.0235C44.2865 33.0396 43.9859 29.8927 43.4307 26.8026C45.7196 25.0439 48.5478 24.0781 51.4464 24.0781C58.7032 24.0781 64.6071 29.982 64.6071 37.2388C64.6071 44.0922 59.3411 49.738 52.6429 50.3446Z" fill="#6AAF08"/>
</g>
<defs>
<clipPath id="clip0">
<rect width="67" height="67" fill="white"/>
</clipPath>
</defs>
</svg>
