<svg width="61" height="61" viewBox="0 0 61 61" fill="none" xmlns="http://www.w3.org/2000/svg">
<path d="M60.6782 35.6075C59.9224 33.6116 58.6541 31.8499 57.0011 30.5C58.6559 29.1484 59.9258 27.3852 60.6833 25.3874C61.2253 23.8364 61.0468 22.1246 60.1964 20.719L59.1157 18.8413C58.4613 17.7004 57.4359 16.8182 56.2102 16.3414C55.9727 16.2544 55.7287 16.1863 55.4803 16.1381C55.5615 15.902 55.623 15.6595 55.6644 15.4133C55.7145 15.1296 55.7404 14.8422 55.7416 14.5542C55.7321 13.5315 55.4546 12.5293 54.9364 11.6476L53.8527 9.7831C53.0586 8.34155 51.6583 7.33354 50.0393 7.0382C50.0229 7.0351 50.0062 7.03308 49.9895 7.03213C47.8911 6.68532 45.7382 6.89988 43.7494 7.65426C43.3988 5.54542 42.4979 3.56657 41.1377 1.91736C40.0644 0.671551 38.4916 -0.0309971 36.8475 0.00105059H34.676C33.3592 -0.0140797 32.0776 0.426606 31.0486 1.24841C30.8507 1.41734 30.6674 1.60272 30.5007 1.80251C30.334 1.60272 30.1507 1.41734 29.9528 1.24841C28.9238 0.426606 27.6423 -0.0140797 26.3255 0.00105059H24.154C22.5093 -0.0302823 20.9362 0.67298 19.8628 1.91939C18.502 3.56811 17.6013 5.54721 17.252 7.65628C15.2452 6.91108 13.0796 6.69854 10.9662 7.03915C9.34733 7.33449 7.94736 8.34251 7.15379 9.78406L6.0731 11.6404C5.54426 12.5254 5.26333 13.5364 5.25976 14.5674C5.25702 14.8531 5.27882 15.1384 5.32481 15.4203C5.37008 15.6648 5.43405 15.9053 5.5159 16.1401C5.26834 16.1886 5.02494 16.2566 4.78798 16.3435C3.56135 16.8223 2.53558 17.7066 1.88141 18.8495L0.798694 20.716C-0.0507493 22.1254 -0.225522 23.8407 0.321909 25.3925C1.07902 27.3883 2.34794 29.1497 4.00108 30.5C2.34699 31.8519 1.07807 33.6156 0.321909 35.6136C-0.225403 37.1618 -0.0496771 38.874 0.800719 40.2788L1.88653 42.1504C2.53415 43.2969 3.55968 44.183 4.78798 44.6574C5.02637 44.7449 5.27155 44.8129 5.52102 44.8608C5.43715 45.0993 5.37222 45.344 5.32683 45.5928C5.28204 45.8711 5.26095 46.1527 5.26381 46.4346C5.2656 47.4622 5.54366 48.4703 6.06893 49.3533L7.15272 51.2189C7.9464 52.6598 9.34578 53.6677 10.964 53.9638C11.6438 54.069 12.3307 54.122 13.0186 54.1224C14.4653 54.1259 15.9003 53.8648 17.2529 53.3518C17.6031 55.4593 18.5038 57.4368 19.8636 59.0845C20.9374 60.3295 22.51 61.0313 24.1538 60.9988H26.3253C27.6422 61.0139 28.9237 60.5732 29.9527 59.7514C30.1506 59.5825 30.3339 59.3971 30.5006 59.1973C30.6673 59.3971 30.8506 59.5825 31.0485 59.7514C32.0775 60.5732 33.359 61.014 34.6759 60.9988H36.8474C38.492 61.0301 40.0651 60.3269 41.1385 59.0805C42.4974 57.4334 43.3976 55.457 43.7482 53.3507C45.0945 53.8681 46.525 54.131 47.9672 54.1264C48.6429 54.1257 49.3177 54.0723 49.9852 53.9668C50.0034 53.9657 50.0213 53.9637 50.0391 53.9607C51.6579 53.6653 53.0579 52.6573 53.8515 51.2158L54.9382 49.3462C55.4552 48.4652 55.7322 47.4641 55.7413 46.4427C55.7401 46.1578 55.715 45.8735 55.6661 45.5928C55.6245 45.3427 55.5623 45.0966 55.4801 44.8568C55.7295 44.809 55.9746 44.741 56.2131 44.6534C57.4414 44.179 58.4669 43.2928 59.1146 42.1464L60.2004 40.2748C61.0511 38.8693 61.2265 37.1562 60.6782 35.6075ZM43.8571 9.80848C45.687 8.96559 47.7306 8.70063 49.7149 9.04911L49.7728 9.05625C50.7633 9.27523 51.6103 9.91273 52.0948 10.8039L53.1785 12.6674C53.5168 13.2401 53.6997 13.8912 53.7091 14.5563C53.7077 14.7326 53.691 14.9085 53.6593 15.0819C53.5816 15.5959 53.328 16.0671 52.9415 16.4147C52.8311 16.4603 52.7234 16.5126 52.6192 16.5713L52.1007 16.8661C51.8663 16.9994 51.6944 17.2204 51.6228 17.4805C51.5513 17.7406 51.5861 18.0184 51.7195 18.2529C51.7195 18.262 51.7348 18.2672 51.7399 18.2762C51.745 18.2854 51.747 18.3098 51.7562 18.326C51.8895 18.5605 52.1105 18.7324 52.3706 18.804C52.6307 18.8755 52.9085 18.8407 53.143 18.7073L53.6818 18.4023C53.7986 18.3313 53.9111 18.2539 54.0193 18.1704C54.511 18.0354 55.0332 18.0632 55.5077 18.2498C56.289 18.5664 56.9416 19.1359 57.361 19.8673L58.4356 21.7358C58.9741 22.6109 59.1026 23.6777 58.7874 24.6556C58.1499 26.3487 57.0709 27.8401 55.6622 28.9753C55.5158 29.0942 55.3359 29.2029 55.1711 29.3168C53.9075 28.6488 52.5267 28.2311 51.1047 28.0868C46.5348 27.6451 41.9227 28.0918 37.5225 29.4023C37.4403 28.8667 37.2967 28.3424 37.0944 27.8397L43.8042 23.9764C44.291 23.6957 44.458 23.0735 44.1773 22.5867C43.8967 22.0999 43.2744 21.9329 42.7876 22.2136L36.0637 26.0768C35.742 25.6703 35.3769 25.3 34.9749 24.9728C38.3033 21.8415 40.992 18.0936 42.8914 13.9373C43.4784 12.6367 43.8065 11.2343 43.8571 9.80848ZM35.5837 30.5C35.5837 33.3073 33.3078 35.5832 30.5005 35.5832C27.6931 35.5832 25.4173 33.3073 25.4173 30.5C25.4206 27.6941 27.6945 25.4202 30.5005 25.4168C33.3079 25.4168 35.5837 27.6926 35.5837 30.5ZM19.1458 9.27773C19.2021 7.05023 20.0116 4.90745 21.4424 3.19927C22.1326 2.43334 23.1232 2.00767 24.1537 2.03423H26.3252C27.1712 2.0222 27.9961 2.29895 28.6635 2.8191C29.0906 3.15257 29.3821 3.62983 29.4839 4.16213C29.4747 4.26888 29.4462 4.37252 29.4462 4.48034V5.0771C29.4462 5.63859 29.9013 6.09369 30.4628 6.09369C30.4761 6.09369 30.4882 6.08654 30.5014 6.08559C30.5147 6.08451 30.5268 6.09369 30.54 6.09369C31.1015 6.09369 31.5566 5.63859 31.5566 5.0771V4.48034C31.5566 4.37264 31.5282 4.26888 31.519 4.16213C31.621 3.62971 31.9128 3.15245 32.3404 2.8191C33.007 2.29967 33.8307 2.02292 34.6756 2.03423H36.8471C37.8794 2.00159 38.873 2.42869 39.5595 3.20034C41.9275 5.93607 42.5066 9.79168 41.0468 13.1024C39.2326 17.0696 36.6572 20.6422 33.4667 23.6173C33.3718 23.7073 33.2954 23.8151 33.2421 23.9345C32.6893 23.7054 32.1095 23.5477 31.5168 23.4649V15.2505C31.5168 14.689 31.0617 14.2339 30.5002 14.2339C29.9388 14.2339 29.4837 14.689 29.4837 15.2505V23.4649C28.89 23.5474 28.3092 23.7053 27.7553 23.9345C27.702 23.8151 27.6256 23.7073 27.5306 23.6173C24.3402 20.6422 21.7648 17.0696 19.9506 13.1024C19.4046 11.905 19.1296 10.6018 19.1455 9.28595V9.27773H19.1458ZM2.21999 24.6563C1.89832 23.6804 2.02175 22.6124 2.5575 21.7356L3.64331 19.868C4.05743 19.1338 4.70935 18.5626 5.4916 18.2485C5.98983 18.0528 6.54036 18.0352 7.05014 18.1987C7.15176 18.2698 7.23623 18.3451 7.34596 18.4112L7.86325 18.705C8.09795 18.8394 8.37649 18.8746 8.63728 18.8032C8.89807 18.7316 9.11966 18.5591 9.25297 18.3238C9.26107 18.3085 9.26107 18.2912 9.26929 18.2749C9.2774 18.2586 9.28359 18.2607 9.28967 18.2516C9.4231 18.0171 9.45789 17.7393 9.38641 17.4792C9.31492 17.2191 9.14301 16.9981 8.90843 16.8648L8.40925 16.5811C8.29964 16.5203 8.18622 16.4665 8.06971 16.4206C7.67799 16.0702 7.41875 15.5955 7.33571 15.0766C7.30998 14.9084 7.29806 14.7383 7.30009 14.5682C7.30533 13.9002 7.48773 13.2456 7.8287 12.6712L8.91546 10.8027C9.40416 9.89938 10.2665 9.25759 11.272 9.04899C13.2597 8.71302 15.3022 8.97858 17.1379 9.81146C17.1882 11.2384 17.5162 12.6418 18.1037 13.943C20.0031 18.0994 22.6918 21.8472 26.0202 24.9785C25.6182 25.3057 25.2531 25.676 24.9314 26.0825L18.2075 22.2193C17.7207 21.9386 17.0985 22.1056 16.8178 22.5924C16.5371 23.0792 16.7041 23.7015 17.1909 23.9821L23.9007 27.8454C23.6985 28.348 23.5548 28.8723 23.4726 29.408C19.0722 28.0985 14.4603 27.6519 9.89047 28.0925C8.4687 28.2367 7.08791 28.6537 5.82399 29.3205C5.66542 29.1975 5.4854 29.0898 5.33195 28.9647C3.92912 27.8317 2.85475 26.3441 2.21999 24.6563ZM17.14 51.1935C15.3022 52.0241 13.2585 52.2879 11.2701 51.9509C10.264 51.7422 9.40106 51.1006 8.91153 50.1972L7.82167 48.3215C7.48296 47.7493 7.30188 47.0975 7.29711 46.4326C7.29497 46.2659 7.30616 46.0993 7.33071 45.9345C7.41601 45.4135 7.67596 44.9371 8.0678 44.5833C8.17765 44.5335 8.28737 44.4817 8.39209 44.4248L8.91165 44.1269C9.39832 43.8473 9.5663 43.226 9.28681 42.7392C9.27966 42.7271 9.26846 42.7209 9.26143 42.7098C9.25428 42.6986 9.25631 42.6864 9.25023 42.6762C9.11728 42.4414 8.8964 42.269 8.63632 42.1972C8.37625 42.1253 8.09818 42.1597 7.86348 42.2929L7.32463 42.5979C7.21193 42.6667 7.10304 42.7414 6.99832 42.8215C6.50235 42.967 5.97196 42.9423 5.49172 42.7514C4.70887 42.4373 4.0566 41.8657 3.64248 41.1309L2.56084 39.2592C2.02365 38.3856 1.89904 37.3196 2.22023 36.3455C3.42649 32.9248 6.48889 30.4997 10.095 30.1096C14.451 29.6888 18.8472 30.1229 23.0367 31.3874C23.1709 31.427 23.3117 31.4384 23.4505 31.421C23.5249 31.991 23.6684 32.5498 23.8774 33.0852L17.1535 36.9597C16.8364 37.1399 16.6401 37.4764 16.6393 37.8412C16.6385 38.206 16.8333 38.5432 17.1496 38.7249C17.4659 38.9066 17.8553 38.9049 18.1701 38.7204L24.885 34.8572C25.2181 35.2891 25.5998 35.6815 26.0226 36.0262C22.6942 39.1575 20.0055 42.9054 18.1061 47.0617C17.5182 48.3632 17.1901 49.7666 17.14 51.1935ZM39.5588 57.8006C38.8686 58.5665 37.878 58.9922 36.8475 58.9656H34.676C33.83 58.9776 33.0051 58.7009 32.3377 58.1807C31.9106 57.8473 31.6191 57.37 31.5173 56.8377C31.5265 56.7361 31.555 56.6273 31.555 56.5195V55.9227C31.555 55.3613 31.0999 54.9062 30.5384 54.9062C30.5251 54.9062 30.513 54.9133 30.4998 54.9143C30.4865 54.9152 30.4744 54.9062 30.4612 54.9062C29.8997 54.9062 29.4446 55.3613 29.4446 55.9227V56.5195C29.4446 56.6273 29.473 56.731 29.4822 56.8377C29.3802 57.3701 29.0884 57.8474 28.6608 58.1807C27.9934 58.7008 27.1686 58.9776 26.3225 58.9656H24.154C23.1216 58.9982 22.128 58.5711 21.4416 57.7995C20.0125 56.091 19.2046 53.9488 19.149 51.7221V51.714C19.1333 50.3981 19.4082 49.0949 19.9542 47.8976C21.7684 43.9304 24.3438 40.3578 27.5342 37.3826C27.6292 37.2927 27.7055 37.1848 27.7589 37.0655C28.3128 37.2948 28.8934 37.4527 29.4872 37.5351V45.7494C29.4872 46.3109 29.9423 46.766 30.5038 46.766C31.0653 46.766 31.5204 46.3109 31.5204 45.7494V37.5351C32.1141 37.4525 32.6949 37.2947 33.2487 37.0655C33.3021 37.1848 33.3785 37.2927 33.4734 37.3826C36.6639 40.3578 39.2393 43.9304 41.0535 47.8976C42.5115 51.2098 41.9295 55.066 39.5588 57.8006ZM58.4406 39.2623L57.3559 41.134C56.942 41.8671 56.2909 42.4376 55.5096 42.7515C55.0163 42.9476 54.4701 42.9667 53.9643 42.8053C53.8664 42.7277 53.7646 42.655 53.6593 42.5878L53.1419 42.294C52.9074 42.1606 52.6296 42.1258 52.3695 42.1973C52.1094 42.2688 51.8885 42.4407 51.7551 42.6752C51.7551 42.6844 51.7551 42.6936 51.746 42.7026C51.7368 42.7118 51.7226 42.724 51.7145 42.7392C51.435 43.226 51.6029 43.8472 52.0897 44.1269L52.6092 44.4248C52.7191 44.4878 52.8349 44.5396 52.9498 44.5914C53.336 44.9398 53.5878 45.4125 53.6614 45.9273C53.6918 46.0982 53.7078 46.2713 53.7092 46.4447C53.7 47.1083 53.5179 47.758 53.1806 48.3296L52.0938 50.1981C51.6105 51.0875 50.7659 51.724 49.778 51.9437L49.7149 51.9509C47.7321 52.2955 45.6913 52.0282 43.8643 51.1843C43.8136 49.7585 43.4855 48.3561 42.8984 47.0558C40.999 42.8993 38.3104 39.1515 34.9819 36.0203C35.4047 35.6755 35.7864 35.2832 36.1195 34.8512L42.8293 38.7194C43.1441 38.904 43.5335 38.9057 43.8498 38.724C44.1661 38.5423 44.3609 38.205 44.3601 37.8402C44.3593 37.4754 44.163 37.139 43.8459 36.9587L37.122 33.0843C37.331 32.5489 37.4744 31.99 37.549 31.4201C37.6877 31.4375 37.8286 31.426 37.9627 31.3865C42.1523 30.122 46.5485 29.6879 50.9044 30.1086C54.5118 30.499 57.5753 32.9248 58.7823 36.3467V36.3498C59.1025 37.3235 58.9775 38.389 58.4406 39.2623Z" fill="#6AAF08"/>
</svg>
