<svg width="67" height="67" viewBox="0 0 67 67" fill="none" xmlns="http://www.w3.org/2000/svg">
<g clip-path="url(#clip0)">
<path d="M37.3298 49.698H35.3272C34.5917 49.698 33.9934 50.2965 33.9934 51.0321V57.0659C33.9934 57.8015 34.5917 58.4 35.3272 58.4H37.3298C39.1716 58.4 40.6699 56.9026 40.6699 55.062V53.0358C40.6699 51.1955 39.1716 49.698 37.3298 49.698ZM38.6921 55.0621C38.6921 55.812 38.0809 56.4222 37.3298 56.4222H35.9712V51.676H37.3298C38.0809 51.676 38.6921 52.2862 38.6921 53.0361V55.0621Z" fill="#6AAF08"/>
<path d="M30.6285 49.698H27.3205C26.7743 49.698 26.3315 50.1407 26.3315 50.6869C26.3315 51.2331 26.7743 51.6759 27.3205 51.6759H30.396V53.06H27.3205C26.7743 53.06 26.3315 53.5028 26.3315 54.049C26.3315 54.5952 26.7743 55.0379 27.3205 55.0379H30.396V56.4221H27.3205C26.7743 56.4221 26.3315 56.8648 26.3315 57.411C26.3315 57.9572 26.7743 58.4 27.3205 58.4H30.6285C31.5909 58.4 32.374 57.6167 32.374 56.6539V51.4439C32.3739 50.4813 31.5909 49.698 30.6285 49.698Z" fill="#6AAF08"/>
<path d="M66.9404 56.2495L65.2752 50.4048C65.1256 49.8795 64.5786 49.575 64.0532 49.7248C63.5279 49.8744 63.2234 50.4216 63.3731 50.9468L64.5476 55.069L52.7344 48.4883C52.7387 48.3449 52.7374 40.983 52.7374 40.983C52.7374 40.4368 52.2946 39.9941 51.7484 39.9941C51.2022 39.9941 50.7595 40.4368 50.7595 40.983C50.7595 40.983 50.7632 48.5456 50.7485 48.67C50.7094 48.6989 45.8988 51.3851 45.8988 51.3851C44.7394 45.9761 40.1245 41.8351 34.4877 41.398V38.7067L50.7595 29.6455V36.4484C50.7595 36.9946 51.2022 37.4373 51.7484 37.4373C52.2946 37.4373 52.7374 36.9946 52.7374 36.4484V27.7612C52.7227 27.2668 52.4633 26.8612 51.9589 26.5446L34.4878 16.8155V3.39062L37.5165 6.42141C37.7097 6.61464 37.9627 6.71133 38.216 6.71133C38.469 6.71133 38.7219 6.61477 38.9152 6.42193C39.3014 6.03586 39.3016 5.40971 38.9156 5.02337L34.6254 0.730348C34.3333 0.432451 33.9234 0.261719 33.4988 0.261719C33.0742 0.261719 32.6755 0.426694 32.3766 0.726031L28.0821 5.02324C27.6961 5.40958 27.6962 6.03573 28.0825 6.4218C28.469 6.80801 29.095 6.80775 29.4811 6.42141L32.5099 3.39062V16.8154L25.712 20.5997C25.2349 20.8653 25.0634 21.4677 25.329 21.9448C25.5947 22.4221 26.197 22.5934 26.674 22.3279L33.4988 18.5286L50.0783 27.7611L33.499 36.9935L16.9198 27.7594L23.2131 24.23C23.6894 23.9628 23.8591 23.3601 23.5918 22.8838C23.3247 22.4073 22.7221 22.2377 22.2456 22.5049L15.0423 26.5446C14.5462 26.8209 14.2624 27.2657 14.2635 27.7647C14.2635 27.7668 14.2639 27.7688 14.2639 27.7707C14.2639 27.7707 14.2623 48.348 14.2663 48.4884L2.45314 55.0674L3.62471 50.9462C3.77412 50.4208 3.46929 49.8739 2.94388 49.7245C2.41873 49.5751 1.8716 49.8799 1.7222 50.4053L0.0593592 56.255C-0.0538078 56.6612 -0.00409279 57.0868 0.199346 57.4532C0.404224 57.8222 0.753538 58.0986 1.15244 58.2099L6.99342 59.876C7.08409 59.9019 7.17541 59.9142 7.26529 59.9142C7.69585 59.9142 8.09186 59.6309 8.21576 59.1964C8.36556 58.6711 8.06125 58.1238 7.5361 57.974L3.41185 56.7976L15.1137 50.2807C15.2393 50.3726 20.8295 53.4987 20.8295 53.4987C20.8217 53.6812 20.8171 53.8646 20.8171 54.0491C20.8171 61.0459 26.5062 66.7384 33.4991 66.7384C40.492 66.7384 46.181 61.046 46.181 54.0491C46.181 53.8647 46.1764 53.6813 46.1686 53.4988C46.1686 53.4988 51.7628 50.372 51.8875 50.2804L63.5878 56.7983L59.4658 57.9742C58.9405 58.124 58.6362 58.6712 58.7861 59.1965C58.91 59.6311 59.306 59.9144 59.7366 59.9144C59.8265 59.9144 59.9178 59.9021 60.0083 59.8762L65.8498 58.2099C66.2491 58.0957 66.5948 57.8202 66.7989 57.4531C67.0034 57.0838 67.0544 56.6583 66.9404 56.2495ZM16.5103 48.8291C16.3673 48.7492 16.2914 48.6993 16.2518 48.6703C16.2377 48.5466 16.2417 29.6458 16.2417 29.6458L32.5099 38.7067V41.398C26.8731 41.8351 22.2584 45.9759 21.0987 51.3847L16.5103 48.8291ZM33.4988 64.7604C27.5966 64.7604 22.7948 59.9552 22.7948 54.0489C22.7948 48.1426 27.5966 43.3374 33.4988 43.3374C39.4012 43.3374 44.203 48.1426 44.203 54.0489C44.203 59.9552 39.4012 64.7604 33.4988 64.7604Z" fill="#6AAF08"/>
</g>
<defs>
<clipPath id="clip0">
<rect width="67" height="67" fill="white"/>
</clipPath>
</defs>
</svg>
