<svg width="59" height="59" viewBox="0 0 59 59" fill="none" xmlns="http://www.w3.org/2000/svg">
<path d="M56.05 0H2.95C1.32151 0.00172852 0.00172852 1.32151 0 2.95V56.05C0.00172852 57.6785 1.32151 58.9983 2.95 59H56.05C57.6785 58.9983 58.9983 57.6785 59 56.05V2.95C58.9983 1.32151 57.6785 0.00172852 56.05 0ZM57.0333 56.05C57.033 56.5929 56.5929 57.033 56.05 57.0333H2.95C2.40713 57.033 1.96705 56.5929 1.9667 56.05V2.95C1.96705 2.40713 2.40713 1.96705 2.95 1.9667H56.05C56.5929 1.96705 57.033 2.40713 57.0333 2.95V56.05Z" fill="#6AAF08"/>
<path d="M54.0834 3.93311H4.91677C4.65588 3.93299 4.4057 4.03647 4.22133 4.22096C4.03695 4.40545 3.93336 4.65563 3.93347 4.9164V54.0831C3.93336 54.344 4.03684 54.5942 4.22133 54.7785C4.40582 54.963 4.65599 55.0665 4.91677 55.0664H54.0835C54.3444 55.0665 54.5945 54.963 54.7789 54.7785C54.9634 54.5941 55.0669 54.3439 55.0668 54.0831V4.91652C55.0669 4.65563 54.9634 4.40545 54.7789 4.22108C54.5944 4.03659 54.3442 3.93299 54.0834 3.93311ZM40.8486 5.89981L44.4479 10.1001C45.6913 11.5478 46.6405 13.224 47.2424 15.035L47.8473 16.8509C48.0135 17.3457 47.9751 17.8864 47.7407 18.3527L46.2379 21.3594C45.8817 22.089 45.1087 22.5194 44.301 22.4378L35.4894 21.6369C35.4221 21.637 35.355 21.6443 35.2893 21.6586C35.0189 21.2843 34.6845 20.9607 34.3015 20.7026L31.3594 18.741C32.0218 18.3013 32.5353 17.6711 32.8323 16.9335L33.7657 14.5952C34.2504 13.3943 34.1098 12.0314 33.3903 10.9547L33.1598 10.6052C33.0166 10.3943 32.8531 10.1978 32.672 10.0184L36.7906 5.89981H40.8486ZM33.2644 34.8236L31.7014 33.2606C31.8404 33.1186 31.9684 32.9664 32.0842 32.8051L34.9123 28.5635C35.1964 28.136 35.3944 27.6572 35.4951 27.1539L35.9772 24.7464C36.0471 24.3894 36.0674 24.0244 36.0373 23.662L44.1223 24.3969C44.2452 24.4075 44.3671 24.4132 44.4881 24.4132C44.7699 24.4104 45.0504 24.3772 45.325 24.3144L46.1311 29.9599C46.2157 30.5412 46.4283 31.0965 46.7534 31.5857L47.6704 32.9618C47.7886 33.1318 47.9197 33.2922 48.0629 33.4416L45.1689 39.2295C44.8376 39.8975 44.1553 40.319 43.4098 40.3165H41.7293C40.9303 40.3176 40.1394 40.1552 39.4054 39.8392L34.4166 37.7017V37.6047C34.4139 36.5621 33.9998 35.5626 33.2644 34.8236ZM19.8636 30.0904L17.8992 27.4715C18.4066 26.797 18.6817 25.9763 18.6834 25.1323V23.1075C18.7749 23.114 18.8658 23.1244 18.958 23.1244C19.326 23.1246 19.6922 23.0732 20.046 22.9717L24.6467 21.6522C24.7721 21.6186 24.8955 21.5783 25.0164 21.5312C25.0299 21.5255 25.125 21.49 25.1374 21.4842L29.271 19.7123L33.2105 22.3389C33.8753 22.7793 34.2068 23.5787 34.0488 24.3604L33.5668 26.7678C33.5163 27.0198 33.4171 27.2597 33.2749 27.4736L30.4479 31.7143C30.119 32.2104 29.5821 32.5296 28.9892 32.5814L20.6501 33.3394V32.4498C20.6478 31.5994 20.372 30.7721 19.8636 30.0904ZM20.6215 35.3173L29.1678 34.5404C29.459 34.5137 29.7464 34.4549 30.0247 34.365L31.8739 36.2142C32.2414 36.5838 32.4484 37.0834 32.4501 37.6047V39.6204C32.4495 39.9256 32.3785 40.2266 32.2426 40.5L30.4191 44.1461C30.0878 44.8141 29.4055 45.2357 28.6598 45.2331H23.3129C22.9762 45.2277 22.6455 45.1438 22.3469 44.9882L18.3568 43.4496C18.204 42.6993 17.834 42.0105 17.2928 41.4687L15.9848 40.1607L18.9724 38.0693C19.888 37.4278 20.4875 36.4272 20.6215 35.3173ZM21.6334 8.61162V5.89981H34.0095L30.9178 8.99155C30.5807 8.89855 30.2328 8.85096 29.8831 8.84981H21.6094C21.6145 8.76995 21.6334 8.69194 21.6334 8.61162ZM20.9527 10.8165H29.8833C30.5409 10.8156 31.1553 11.144 31.5197 11.6914L31.7521 12.0438C32.1127 12.5816 32.1832 13.2633 31.9403 13.8635L31.0049 16.2057C30.8123 16.6877 30.4362 17.0736 29.9592 17.2783L24.4155 19.656L24.3223 19.6906C24.2616 19.7155 24.1994 19.7366 24.136 19.754L19.5056 21.0811C18.6484 21.3166 17.7387 20.9592 17.2709 20.2034L16.1122 18.7893C16.505 18.1692 16.7146 17.4507 16.7169 16.7165V15.9713C16.7185 15.4501 16.9256 14.9504 17.2931 14.5808L20.4812 11.3926C20.6564 11.2161 20.8143 11.0232 20.9527 10.8165ZM5.90006 5.89981H19.6668V8.61162C19.6652 9.13283 19.4581 9.63248 19.0906 10.0022L15.9024 13.1903C15.167 13.9293 14.7528 14.9288 14.7501 15.9713V16.7165C14.7487 17.8021 13.869 18.6817 12.7834 18.6832H10.6506C10.2941 18.6832 9.94421 18.5863 9.63849 18.4029L5.90006 16.1597V5.89981ZM5.90006 18.4533L8.62628 20.0891C9.23771 20.4561 9.93741 20.6499 10.6506 20.6499H12.7834C13.4486 20.6455 14.1015 20.4704 14.6797 20.1413L15.6921 21.3721C15.9732 21.7936 16.333 22.1568 16.752 22.4417C16.7347 22.4987 16.7229 22.5573 16.7168 22.6166V25.1324C16.7183 25.7299 16.4462 26.2954 15.9782 26.667L12.9764 29.0696C12.6274 29.3479 12.1945 29.4996 11.7482 29.4998H5.90006V18.4533ZM5.90006 31.4665H11.7482C12.6412 31.4657 13.5075 31.1621 14.2056 30.6051L16.447 28.8119L18.2897 31.2687C18.544 31.6101 18.6821 32.0241 18.6835 32.4498V34.8476C18.6828 35.4889 18.37 36.0896 17.8451 36.458L10.0312 41.9278C9.70095 42.1596 9.30731 42.2837 8.90388 42.2831H5.90006V31.4665ZM15.9024 52.6927L16.3095 53.0998H5.90006V44.2498H8.90388C9.71075 44.251 10.4983 44.0027 11.1587 43.5392L14.349 41.3058L15.9024 42.8593C16.6687 43.6279 16.6687 44.8716 15.9024 45.6402C15.167 46.3792 14.7528 47.3787 14.7501 48.4212V49.9115C14.7528 50.9543 15.167 51.9537 15.9024 52.6927ZM29.0089 53.0998H19.0906L17.2929 51.3022C16.9255 50.9325 16.7184 50.4329 16.7168 49.9116V48.4213C16.7184 47.9001 16.9255 47.4004 17.2929 47.0308C17.7173 46.6009 18.0356 46.078 18.2226 45.5037L21.5546 46.785C22.1009 47.0571 22.7026 47.1992 23.3129 47.1998H28.6598C29.0433 47.1992 29.4247 47.143 29.7919 47.0327L31.2814 50.0115C31.2869 50.0226 31.2959 50.0318 31.3016 50.0429L29.0089 53.0998ZM31.4663 53.0998L32.6278 51.5512L34.5631 53.0998H31.4663ZM37.7125 53.0998L33.5698 49.7859C33.3482 49.6081 33.1674 49.3848 33.0397 49.131L31.4777 46.0062C31.76 45.7172 31.9963 45.3865 32.1783 45.0258L34.0019 41.3786C34.2364 40.8945 34.3693 40.3676 34.3922 39.8302L38.6305 41.6465C39.6092 42.068 40.6638 42.2846 41.7294 42.2832H43.4099C43.8239 42.2815 44.235 42.2147 44.6283 42.0851L48.5907 46.0476C48.697 46.1451 48.8087 46.2366 48.9253 46.3214L44.6885 53.0998H37.7125ZM53.1001 53.0998H47.0074L50.7348 47.136C50.9448 47.1748 51.1579 47.1961 51.3715 47.1998H53.1001V53.0998ZM53.1001 45.2331H51.3715C50.8503 45.2315 50.3507 45.0244 49.981 44.6569L46.3207 40.9966C46.5626 40.7297 46.767 40.4312 46.9282 40.109L49.7311 34.5033C49.8753 34.5565 50.0225 34.6012 50.1721 34.6373L53.0999 35.2226V45.2331H53.1001ZM53.1001 33.2172L50.5581 32.7091C50.0469 32.6053 49.5973 32.304 49.3069 31.8708L48.3899 30.4937C48.227 30.2494 48.1207 29.9719 48.0787 29.6813L47.1905 23.4606C47.1802 23.425 47.1678 23.3901 47.1534 23.3561C47.4989 23.037 47.7846 22.6587 47.9971 22.2391L49.4999 19.2315C49.5836 19.0542 49.6539 18.8709 49.7102 18.6832H53.1001V33.2172ZM53.1001 16.7165H49.8243C49.7976 16.5521 49.7605 16.3894 49.7132 16.2296L49.1073 14.4127C48.4258 12.3601 47.35 10.4603 45.9403 8.82008L43.4372 5.89981H53.1001V16.7165Z" fill="#6AAF08"/>
</svg>
