<svg width="62" height="62" viewBox="0 0 62 62" fill="none" xmlns="http://www.w3.org/2000/svg">
<g clip-path="url(#clip0)">
<path d="M31.6065 10.9587C31.6065 10.357 31.1193 9.86865 30.5164 9.86865C24.2237 9.86865 19.1038 14.9886 19.1038 21.2813C19.1038 21.883 19.5909 22.3714 20.1939 22.3714C20.7966 22.3714 21.2839 21.883 21.2839 21.2813C21.2839 16.1909 25.4261 12.0487 30.5165 12.0487C31.1193 12.0487 31.6065 11.5615 31.6065 10.9587Z" fill="#6AAF08"/>
<path d="M14.5237 21.2811C14.5237 25.0221 15.7326 28.5592 18.0204 31.5101C18.0313 31.5243 18.0434 31.5383 18.0553 31.5526C22.8264 38.1756 21.6404 41.3258 21.6404 41.3312C21.3854 41.8762 21.6209 42.5248 22.1658 42.7809C22.3152 42.8507 22.4721 42.8845 22.6269 42.8834C23.0367 42.8834 23.4292 42.6513 23.6144 42.2555C23.8116 41.837 25.3704 37.9357 19.7665 30.1987C19.7415 30.1649 19.7164 30.1322 19.6881 30.1017C17.7359 27.551 16.7047 24.5034 16.7047 21.28C16.7047 13.2704 23.222 6.7543 31.2304 6.7543C39.2388 6.7543 45.7564 13.2704 45.7564 21.28C45.7564 24.512 44.7187 27.5717 42.736 30.1507C37.1289 37.8932 38.7508 41.8392 38.9536 42.2643C39.2097 42.7973 39.8386 43.0153 40.3772 42.7744C40.9157 42.5334 41.1598 41.8925 40.9319 41.3476C40.9188 41.3159 39.6697 38.1025 44.4833 31.4544C46.7418 28.5156 47.9365 24.9981 47.9365 21.2811C47.9365 12.0692 40.4425 4.5752 31.2305 4.5752C22.0186 4.5752 14.5237 12.0704 14.5237 21.2811Z" fill="#6AAF08"/>
<path d="M40.959 47.0803V46.1538C40.959 44.6768 39.7567 43.4756 38.2808 43.4756H23.5916C22.1146 43.4756 20.9133 44.6768 20.9133 46.1538V47.0803C20.9133 48.5562 22.1146 49.7585 23.5916 49.7585H38.282C39.7579 49.7585 40.959 48.5573 40.959 47.0803ZM23.0934 47.0803V46.1538C23.0934 45.8792 23.3168 45.6556 23.5916 45.6556H38.282C38.5566 45.6556 38.7801 45.879 38.7801 46.1538V47.0803C38.7801 47.3549 38.5567 47.5785 38.282 47.5785H23.5916C23.3168 47.5785 23.0934 47.3551 23.0934 47.0803Z" fill="#6AAF08"/>
<path d="M25.3565 51.415C24.7537 51.415 24.2664 51.9034 24.2664 52.5051V55.384C24.2664 55.8112 24.5159 56.1982 24.904 56.3759L30.7782 59.0563C30.9221 59.1217 31.0758 59.1544 31.2305 59.1544C31.3897 59.1544 31.5489 59.1196 31.696 59.0498L37.5866 56.2702C37.9681 56.0904 38.2112 55.7067 38.2112 55.2849V52.5063C38.2112 51.9046 37.724 51.4162 37.1211 51.4162C36.5182 51.4162 36.031 51.9046 36.031 52.5063V54.5948L31.2229 56.8643L26.4464 54.6842V52.5063C26.4464 51.9022 25.9592 51.415 25.3565 51.415Z" fill="#6AAF08"/>
<path d="M56.6249 40.978C56.9824 40.494 56.8789 39.8116 56.395 39.4541L49.0002 34.0018C48.5152 33.6443 47.8338 33.7467 47.4763 34.2317C47.1188 34.7157 47.2223 35.3981 47.7063 35.7556L55.101 41.208C55.2961 41.3519 55.5229 41.4205 55.7474 41.4205C56.081 41.4216 56.4113 41.2679 56.6249 40.978Z" fill="#6AAF08"/>
<path d="M13.2974 10.3885C13.4925 10.5324 13.7192 10.601 13.9437 10.601C14.2783 10.601 14.6075 10.4474 14.8223 10.1574C15.1799 9.67347 15.0763 8.99104 14.5924 8.63354L7.03079 3.05904C6.54683 2.70046 5.8644 2.80506 5.50689 3.28902C5.14938 3.77406 5.25183 4.45649 5.73687 4.814L13.2974 10.3885Z" fill="#6AAF08"/>
<path d="M13.6407 33.6269L5.73802 39.4542C5.25406 39.8117 5.15053 40.4941 5.50804 40.9781C5.72166 41.268 6.05195 41.4217 6.38666 41.4217C6.61114 41.4217 6.8379 41.353 7.03302 41.2091L14.9357 35.3818C15.4197 35.0243 15.5232 34.3419 15.1657 33.8579C14.8059 33.3729 14.1247 33.2705 13.6407 33.6269Z" fill="#6AAF08"/>
<path d="M48.029 8.27365C47.5451 8.63116 47.4416 9.31359 47.7991 9.79755C48.0127 10.0875 48.343 10.2412 48.6777 10.2412C48.9022 10.2412 49.1289 10.1714 49.324 10.0286L56.3972 4.8139C56.8812 4.45639 56.9847 3.77396 56.6272 3.29C56.2697 2.80604 55.5883 2.70144 55.1033 3.06002L48.029 8.27365Z" fill="#6AAF08"/>
<path d="M60.9101 21.0449H52.5725C51.9697 21.0449 51.4824 21.5333 51.4824 22.135C51.4824 22.7367 51.9696 23.2251 52.5725 23.2251H60.9101C61.5129 23.2251 62.0002 22.7367 62.0002 22.135C62.0002 21.5333 61.5129 21.0449 60.9101 21.0449Z" fill="#6AAF08"/>
<path d="M10.7837 22.135C10.7837 21.5333 10.2965 21.0449 9.69361 21.0449H1.09009C0.487316 21.0449 0 21.5333 0 22.135C0 22.7367 0.487182 23.2251 1.09009 23.2251H9.69375C10.2953 23.225 10.7837 22.7367 10.7837 22.135Z" fill="#6AAF08"/>
</g>
<defs>
<clipPath id="clip0">
<rect width="62" height="62" fill="white"/>
</clipPath>
</defs>
</svg>
