<svg width="57" height="57" viewBox="0 0 57 57" fill="none" xmlns="http://www.w3.org/2000/svg">
<g clip-path="url(#clip0)">
<path d="M55.1002 51.4748V19C55.1002 9.55594 47.4443 1.90001 38.0002 1.90001C28.5562 1.90001 20.9002 9.55594 20.9002 19V21.0748C19.7656 21.4759 19.0052 22.5466 19.0002 23.75V33.25C19.0052 34.4535 19.7656 35.5241 20.9002 35.9252V38C20.9002 39.0493 20.0496 39.9 19.0002 39.9C17.9509 39.9 17.1002 39.0493 17.1002 38V5.52521C18.4079 5.0646 19.1928 3.72795 18.9578 2.36154C18.7229 0.995119 17.5367 -0.00262195 16.1502 5.17589e-06H2.85023C1.46376 -0.00262195 0.27755 0.995119 0.0426091 2.36154C-0.192332 3.72795 0.592507 5.0646 1.90023 5.52521V38C1.90023 47.4441 9.55616 55.1 19.0002 55.1C28.4443 55.1 36.1002 47.4441 36.1002 38V35.9252C37.2349 35.5241 37.9952 34.4535 38.0002 33.25V23.75C37.9952 22.5466 37.2349 21.4759 36.1002 21.0748V19C36.1002 17.9507 36.9509 17.1 38.0002 17.1C39.0496 17.1 39.9002 17.9507 39.9002 19V51.4748C38.5925 51.9354 37.8077 53.2721 38.0426 54.6385C38.2776 56.0049 39.4638 57.0026 40.8502 57H54.1502C55.5367 57.0026 56.7229 56.0049 56.9578 54.6385C57.1928 53.2721 56.408 51.9354 55.1002 51.4748ZM2.85023 1.90001H16.1502C16.6749 1.90001 17.1002 2.32533 17.1002 2.85001C17.1002 3.37468 16.6749 3.80001 16.1502 3.80001H2.85023C2.32556 3.80001 1.90023 3.37468 1.90023 2.85001C1.90023 2.32533 2.32556 1.90001 2.85023 1.90001ZM19.0002 53.2C10.6096 53.1901 3.81017 46.3906 3.80023 38V5.70001H15.2002V38C15.2002 40.0987 16.9015 41.8 19.0002 41.8C21.0989 41.8 22.8002 40.0987 22.8002 38V36.1H34.2002V38C34.1903 46.3906 27.3908 53.1901 19.0002 53.2ZM36.1002 33.25C36.1002 33.7747 35.6749 34.2 35.1502 34.2H21.8502C21.3256 34.2 20.9002 33.7747 20.9002 33.25V23.75C20.9002 23.2253 21.3256 22.8 21.8502 22.8H35.1502C35.6749 22.8 36.1002 23.2253 36.1002 23.75V33.25ZM38.0002 15.2C35.9015 15.2 34.2002 16.9013 34.2002 19V20.9H22.8002V19C22.8002 10.6053 29.6055 3.80001 38.0002 3.80001C46.395 3.80001 53.2002 10.6053 53.2002 19V51.3H41.8002V19C41.8002 16.9013 40.0989 15.2 38.0002 15.2ZM54.1502 55.1H40.8502C40.3256 55.1 39.9002 54.6747 39.9002 54.15C39.9002 53.6253 40.3256 53.2 40.8502 53.2H54.1502C54.6749 53.2 55.1002 53.6253 55.1002 54.15C55.1002 54.6747 54.6749 55.1 54.1502 55.1Z" fill="#6AAF08"/>
<path d="M6.64995 7.6001C6.12528 7.6001 5.69995 8.02543 5.69995 8.5501V10.4501C5.69995 10.9748 6.12528 11.4001 6.64995 11.4001C7.17462 11.4001 7.59995 10.9748 7.59995 10.4501V8.5501C7.59995 8.02543 7.17462 7.6001 6.64995 7.6001Z" fill="#6AAF08"/>
<path d="M6.64995 13.2998C6.12528 13.2998 5.69995 13.7251 5.69995 14.2498V27.5498C5.69995 28.0745 6.12528 28.4998 6.64995 28.4998C7.17462 28.4998 7.59995 28.0745 7.59995 27.5498V14.2498C7.59995 13.7251 7.17462 13.2998 6.64995 13.2998Z" fill="#6AAF08"/>
</g>
<defs>
<clipPath id="clip0">
<rect width="57" height="57" fill="white"/>
</clipPath>
</defs>
</svg>
