<svg width="56" height="56" viewBox="0 0 56 56" fill="none" xmlns="http://www.w3.org/2000/svg">
<g clip-path="url(#clip0)">
<path d="M21.217 20.6196C18.7624 20.6196 16.2447 19.6956 14.336 17.8593C12.3364 15.9389 11.851 13.5146 11.3377 10.9479C10.7684 8.09194 10.178 5.13794 7.35703 2.42661C7.03036 2.11161 6.91603 1.63327 7.06303 1.20627C7.21236 0.774607 7.59736 0.46894 8.05003 0.42694L8.3697 0.394273C14.1657 -0.19606 21.378 -0.91006 27.0434 4.53361C28.8377 6.25561 29.9227 8.89927 29.9484 11.5989C29.974 14.1703 29.071 16.5036 27.405 18.1649C25.7647 19.8053 23.52 20.6196 21.217 20.6196ZM10.5584 2.52694C12.5744 5.21494 13.1274 7.99161 13.6267 10.4929C14.084 12.7819 14.4784 14.7629 15.9507 16.1793C18.4497 18.5779 22.9857 19.2896 25.753 16.5199C26.971 15.3043 27.6314 13.5636 27.6127 11.6246C27.5917 9.53627 26.775 7.51561 25.424 6.21827C21.1004 2.06261 15.6357 2.07894 10.5584 2.52694Z" fill="#6AAF08"/>
<path d="M42.0397 16.333C41.8764 16.333 41.7107 16.3283 41.5474 16.3167C39.6527 16.2047 38.0077 15.4533 36.9134 14.2003C33.7961 10.6327 34.8274 5.75834 37.5714 3.28734C42.1984 -0.877657 47.8614 -0.135657 52.4067 0.46401L52.6517 0.496676C53.1021 0.55501 53.4777 0.872343 53.6154 1.30868C53.7507 1.74501 53.6201 2.21868 53.2817 2.52434C51.0837 4.50301 50.5611 6.74068 50.0571 8.90368C49.6067 10.8333 49.1424 12.8283 47.4787 14.3263C46.0601 15.6003 44.0557 16.333 42.0397 16.333ZM46.9677 2.33068C44.2144 2.33068 41.4774 2.90701 39.1301 5.02334C37.2074 6.75234 36.4864 10.166 38.6681 12.6627C39.3494 13.442 40.4204 13.911 41.6851 13.9857C43.2437 14.0673 44.8351 13.554 45.9154 12.5857C47.0354 11.5777 47.3667 10.1613 47.7844 8.36701C48.1927 6.61001 48.6804 4.52634 50.1364 2.52901C49.0934 2.41701 48.0271 2.33068 46.9677 2.33068ZM38.3507 4.15534H38.3741H38.3507Z" fill="#6AAF08"/>
<path d="M31.801 28.1399C31.2504 28.1399 30.758 27.7479 30.6554 27.1856C29.12 18.8906 21.2334 12.0609 21.1517 11.9932C20.6617 11.5756 20.6057 10.8382 21.0234 10.3506C21.441 9.85822 22.176 9.79756 22.6684 10.2199C23.0184 10.5186 31.262 17.6399 32.9514 26.7609C33.068 27.3932 32.6504 28.0022 32.0157 28.1189C31.9434 28.1329 31.8734 28.1399 31.801 28.1399Z" fill="#6AAF08"/>
<path d="M8.16667 51.3333H1.16667C0.522667 51.3333 0 50.8107 0 50.1667V29.1667C0 28.5227 0.522667 28 1.16667 28C9.10233 28 13.2953 30.674 13.4703 30.7883C13.888 31.0613 14.0863 31.57 13.965 32.053L9.29833 50.4537C9.16533 50.9717 8.701 51.3333 8.16667 51.3333ZM2.33333 49H7.259L11.48 32.3633C10.1663 31.7357 7.07233 30.5293 2.33333 30.3543V49Z" fill="#6AAF08"/>
<path d="M30.3333 55.9997C24.8267 55.9997 14.1797 51.3703 8.32065 48.6077C7.73732 48.3347 7.48999 47.637 7.76299 47.056C8.03599 46.4703 8.73365 46.2253 9.31699 46.4983C13.8903 48.6543 25.0903 53.6663 30.3333 53.6663C36.008 53.6663 49.385 47 53.2327 45.019C52.626 44.2257 51.373 43.1663 49 43.1663C46.8463 43.1663 44.1163 44.0273 41.475 44.8627C38.668 45.747 35.763 46.6663 33.25 46.6663C28.434 46.6663 22.0383 44.361 21.7677 44.263C21.1633 44.0437 20.8507 43.374 21.07 42.7673C21.2893 42.163 21.9567 41.8527 22.5657 42.0697C22.6263 42.093 28.847 44.333 33.25 44.333C35.4037 44.333 38.1337 43.472 40.775 42.6367C43.582 41.7523 46.487 40.833 49 40.833C54.4437 40.833 55.881 44.956 55.9393 45.131C56.119 45.67 55.8857 46.2603 55.3817 46.531C54.656 46.9137 37.541 55.9997 30.3333 55.9997Z" fill="#6AAF08"/>
<path d="M38.5001 45.7096C37.8561 45.7096 37.3334 45.187 37.3334 44.543V43.3763C37.3334 41.7476 36.2367 40.3523 34.6641 39.9883L12.138 34.5493C11.5104 34.3976 11.1254 33.7676 11.277 33.14C11.4264 32.51 12.068 32.139 12.684 32.279L35.2007 37.7156C37.8281 38.3293 39.6667 40.658 39.6667 43.3763V44.543C39.6667 45.187 39.1441 45.7096 38.5001 45.7096Z" fill="#6AAF08"/>
<path d="M31.8034 28.1356C31.8011 28.1356 31.7987 28.1356 31.7964 28.1356C31.1547 28.131 30.6344 27.6106 30.6367 26.969C30.6367 26.5653 30.7837 17.0593 41.3981 10.6683C41.9487 10.337 42.6651 10.512 42.9987 11.0673C43.3324 11.618 43.1527 12.3366 42.6021 12.6703C33.1591 18.3566 32.9747 26.6306 32.9724 26.9806C32.9654 27.6176 32.4451 28.1356 31.8034 28.1356Z" fill="#6AAF08"/>
</g>
<defs>
<clipPath id="clip0">
<rect width="56" height="56" fill="white"/>
</clipPath>
</defs>
</svg>
