<svg width="36" height="36" viewBox="0 0 36 36" fill="none" xmlns="http://www.w3.org/2000/svg">
<g clip-path="url(#clip0)">
<path d="M19.9883 18.0008L35.5876 2.40144C36.1368 1.85223 36.1368 0.961795 35.5876 0.412655C35.0384 -0.136485 34.148 -0.136555 33.5989 0.412655L17.9995 16.012L2.4002 0.412655C1.85099 -0.136555 0.960559 -0.136555 0.411419 0.412655C-0.13772 0.961865 -0.137791 1.8523 0.411419 2.40144L16.0107 18.0007L0.411419 33.6001C-0.137791 34.1493 -0.137791 35.0397 0.411419 35.5889C0.685989 35.8634 1.04592 36.0007 1.40585 36.0007C1.76578 36.0007 2.12563 35.8634 2.40027 35.5889L17.9995 19.9896L33.5988 35.5889C33.8734 35.8634 34.2333 36.0007 34.5932 36.0007C34.9531 36.0007 35.313 35.8634 35.5876 35.5889C36.1368 35.0397 36.1368 34.1492 35.5876 33.6001L19.9883 18.0008Z" fill="#3E3E3E"/>
</g>
<defs>
<clipPath id="clip0">
<rect width="36" height="36" fill="white"/>
</clipPath>
</defs>
</svg>
