<svg width="11" height="11" viewBox="0 0 11 11" fill="none" xmlns="http://www.w3.org/2000/svg">
<path d="M5.49997 0C2.46731 0 0 2.46725 0 5.49997C0 8.53269 2.46731 11 5.49997 11C8.53264 11 10.9999 8.53269 10.9999 5.49997C10.9999 2.46725 8.53269 0 5.49997 0ZM8.65815 4.57098L5.2028 8.02633C5.05588 8.17325 4.86058 8.25412 4.65282 8.25412C4.44506 8.25412 4.24976 8.17325 4.10284 8.02633L2.34179 6.26528C2.19487 6.11836 2.11395 5.92306 2.11395 5.7153C2.11395 5.50749 2.19487 5.31219 2.34179 5.16527C2.48865 5.01834 2.68396 4.93742 2.89177 4.93742C3.09953 4.93742 3.29489 5.01834 3.44175 5.16532L4.65276 6.37628L7.55808 3.47096C7.705 3.32404 7.9003 3.24318 8.10806 3.24318C8.31581 3.24318 8.51112 3.32404 8.65804 3.47096C8.96141 3.77433 8.96141 4.26772 8.65815 4.57098Z" fill="#6AAF08"/>
</svg>
